<?xml version="1.0" standalone="no"?>
<!DOCTYPE svg PUBLIC "-//W3C//DTD SVG 20010904//EN"
 "http://www.w3.org/TR/2001/REC-SVG-20010904/DTD/svg10.dtd">
<svg version="1.0" xmlns="http://www.w3.org/2000/svg"
 width="1024.000000pt" height="1024.000000pt" viewBox="0 0 1024.000000 1024.000000"
 preserveAspectRatio="xMidYMid meet">

<g transform="translate(0.000000,1024.000000) scale(0.100000,-0.100000)"
fill="#000000" stroke="none">
<path d="M5456 9054 c-3 -9 -6 -30 -6 -48 0 -53 -29 -148 -56 -183 -30 -40
-82 -68 -144 -78 -62 -10 -82 -22 -78 -48 3 -22 15 -28 94 -47 94 -23 144 -81
169 -198 21 -95 26 -106 54 -110 16 -3 25 5 36 32 8 19 15 44 15 54 0 52 34
129 74 167 39 38 57 45 169 69 22 5 27 12 27 36 0 31 -1 32 -90 50 -115 22
-162 76 -186 215 -8 49 -18 93 -20 97 -9 14 -52 8 -58 -8z"/>
<path d="M7840 8848 c-230 -33 -511 -162 -735 -337 -156 -123 -325 -308 -453
-497 l-41 -62 -83 -7 c-164 -14 -293 -68 -403 -168 l-70 -65 -65 62 c-124 116
-344 247 -534 317 -223 83 -497 121 -719 101 -361 -33 -678 -161 -937 -377
-256 -214 -431 -470 -525 -765 -34 -109 -40 -115 -112 -139 -153 -50 -311
-126 -458 -219 -252 -161 -410 -357 -431 -535 -5 -42 -1 -72 15 -126 49 -162
228 -271 518 -317 125 -20 413 -23 563 -5 150 17 419 69 605 116 191 49 573
174 740 242 61 25 135 56 165 68 134 54 498 229 607 291 196 113 361 217 448
282 84 63 223 187 268 239 45 51 44 51 152 -37 123 -100 122 -84 3 -189 -412
-366 -1153 -762 -1848 -989 -695 -227 -1331 -312 -1730 -231 -122 25 -149 26
-161 7 -17 -26 -3 -43 61 -75 134 -66 343 -98 575 -90 88 4 194 11 236 18 l76
11 119 -119 c310 -310 725 -476 1189 -477 579 0 1088 281 1429 789 104 155
191 373 235 591 28 137 45 338 37 454 -3 52 -2 100 2 105 4 6 36 33 72 60 36
27 81 63 100 79 l34 29 7 -24 c4 -13 8 -76 9 -139 1 -63 5 -155 9 -204 7 -81
11 -92 36 -114 40 -34 79 -24 135 35 24 27 76 82 116 125 122 130 229 264 256
320 37 75 52 171 45 297 -3 58 -8 113 -12 122 -4 12 18 44 77 110 162 183 288
359 362 507 135 268 206 539 206 782 0 104 -1 112 -25 135 -27 28 -51 29 -165
13z m40 -177 c0 -61 -28 -258 -48 -334 l-17 -67 -81 64 c-44 35 -123 104 -174
153 l-93 89 91 42 c79 37 255 89 305 91 13 1 17 -7 17 -38z m-215 -430 c39
-31 81 -63 94 -72 l24 -15 -62 -124 c-194 -388 -444 -652 -923 -978 l-47 -33
-14 33 c-8 18 -28 48 -46 67 l-32 34 37 54 c21 30 61 76 91 102 64 58 83 100
59 137 -10 14 -28 30 -41 36 -44 20 -92 -23 -236 -212 l-27 -35 -36 19 c-75
40 -74 37 -2 196 117 258 276 516 427 697 77 92 248 247 354 321 l70 49 120
-110 c66 -60 152 -135 190 -166z m-1135 -436 c0 -3 -40 -86 -90 -184 l-89
-179 -88 -7 c-48 -4 -132 -13 -186 -19 -53 -7 -96 -9 -95 -5 8 21 168 206 222
256 61 57 148 105 234 128 50 14 92 18 92 10z m-2330 -157 c0 -5 -4 -8 -10 -8
-5 0 -10 10 -10 23 0 18 2 19 10 7 5 -8 10 -18 10 -22z m207 -164 c-3 -3 -12
-4 -19 -1 -8 3 -5 6 6 6 11 1 17 -2 13 -5z m-412 -164 c-3 -5 -11 -10 -16 -10
-6 0 -7 5 -4 10 3 6 11 10 16 10 6 0 7 -4 4 -10z m1071 -40 c0 -11 -4 -20 -8
-20 -10 0 -11 24 -1 33 9 9 9 10 9 -13z m21 -12 c-3 -8 -6 -5 -6 6 -1 11 2 17
5 13 3 -3 4 -12 1 -19z m258 -48 c3 -5 1 -10 -4 -10 -6 0 -11 5 -11 10 0 6 2
10 4 10 3 0 8 -4 11 -10z m1905 -185 c-20 -100 -52 -147 -249 -360 l-56 -60 0
185 c0 158 2 187 16 197 9 7 79 61 155 122 l139 109 3 -66 c2 -37 -2 -94 -8
-127z m-3146 175 c15 -6 26 -17 25 -27 -1 -17 -2 -17 -6 0 -4 15 -21 22 -45
18 -5 0 -8 4 -8 9 0 12 2 12 34 0z m1213 -15 c0 -8 -4 -12 -9 -9 -5 3 -6 10
-3 15 9 13 12 11 12 -6z m1115 -47 c13 -20 13 -28 1 -55 -15 -38 -30 -41 -67
-12 -31 25 -32 28 -5 73 23 39 43 38 71 -6z m-2299 -3 c-3 -9 -8 -14 -10 -11
-3 3 -2 9 2 15 9 16 15 13 8 -4z m-63 -5 c8 -5 11 -12 7 -16 -4 -4 -15 0 -24
9 -18 18 -8 23 17 7z m-315 -130 c-5 -8 -11 -8 -17 -2 -6 6 -7 16 -3 22 5 8
11 8 17 2 6 -6 7 -16 3 -22z m2855 -2 c23 -31 23 -32 5 -65 -30 -55 -41 -59
-75 -27 -37 35 -38 53 -4 93 32 39 44 39 74 -1z m-1110 -13 c-7 -9 -15 -13
-18 -10 -3 2 1 11 8 20 7 9 15 13 18 10 3 -2 -1 -11 -8 -20z m-2305 -242 c-27
-108 -32 -319 -11 -479 19 -139 29 -184 73 -317 19 -60 33 -111 30 -114 -3 -2
-61 -5 -129 -6 -276 -4 -442 19 -577 80 -80 36 -120 69 -142 117 -94 207 155
483 631 698 125 56 135 58 125 21z m523 -6 c-14 -6 -31 -20 -37 -31 -5 -12
-10 -15 -10 -8 -1 18 36 52 57 51 11 -1 9 -4 -10 -12z m42 -41 c0 -3 -4 -8
-10 -11 -5 -3 -10 -1 -10 4 0 6 5 11 10 11 6 0 10 -2 10 -4z m1223 -21 c4 -8
2 -17 -3 -20 -6 -4 -10 -1 -10 4 0 6 -5 11 -11 11 -5 0 -7 -4 -4 -10 3 -5 1
-10 -4 -10 -13 0 -13 3 -5 24 8 20 30 21 37 1z m-1256 -17 c-3 -8 -6 -5 -6 6
-1 11 2 17 5 13 3 -3 4 -12 1 -19z m373 -77 c0 -17 -12 -41 -21 -41 -5 0 -9
11 -9 25 0 16 6 25 15 25 8 0 15 -4 15 -9z m-493 -51 c4 -13 3 -13 -6 0 -10
13 -12 13 -21 0 -8 -13 -10 -12 -10 3 0 22 31 19 37 -3z m307 -95 c-4 -8 -8
-15 -10 -15 -2 0 -4 7 -4 15 0 8 4 15 10 15 5 0 7 -7 4 -15z m1676 -831 c0 -8
-4 -14 -10 -14 -5 0 -10 9 -10 21 0 11 5 17 10 14 6 -3 10 -13 10 -21z m0
-149 c0 -14 -6 -25 -13 -25 -21 0 -27 11 -16 31 14 27 29 23 29 -6z m-505
-185 c9 -14 -13 -50 -31 -50 -15 0 -35 39 -27 53 6 10 51 9 58 -3z m-335 -86
c0 -8 -7 -14 -15 -14 -15 0 -21 21 -9 33 10 9 24 -2 24 -19z"/>
<path d="M7210 8201 c-82 -26 -148 -90 -174 -168 -28 -84 -6 -164 61 -224 100
-90 214 -89 318 3 104 91 106 236 5 336 -44 44 -153 72 -210 53z m132 -141
c28 -29 30 -35 26 -87 -4 -49 -9 -60 -39 -85 -75 -63 -179 -20 -179 74 0 50
29 104 63 118 48 19 97 12 129 -20z"/>
<path d="M5050 5260 c0 -5 5 -10 10 -10 6 0 10 5 10 10 0 6 -4 10 -10 10 -5 0
-10 -4 -10 -10z"/>
<path d="M3377 8703 c-3 -5 -7 -29 -11 -54 -4 -26 -20 -67 -36 -92 -23 -36
-39 -49 -84 -66 -31 -12 -61 -21 -65 -21 -14 0 -23 -32 -12 -43 6 -6 34 -18
63 -28 67 -24 103 -63 123 -136 9 -32 18 -64 21 -71 2 -7 14 -12 26 -10 18 2
25 15 38 68 9 36 25 78 34 92 19 29 90 68 123 68 27 0 41 37 22 54 -8 7 -34
18 -59 25 -74 21 -116 72 -126 154 -3 23 -7 48 -9 55 -5 13 -41 17 -48 5z"/>
<path d="M2607 7643 c-2 -4 -8 -26 -12 -48 -9 -54 -39 -109 -69 -129 -14 -9
-49 -22 -77 -29 -54 -14 -69 -28 -62 -58 4 -13 24 -24 65 -35 83 -24 123 -64
138 -141 16 -80 17 -83 39 -83 15 0 23 10 30 38 6 20 11 43 11 50 0 23 39 90
62 107 13 8 47 23 76 31 48 14 53 18 50 42 -3 23 -11 28 -65 44 -78 23 -108
59 -127 149 -10 52 -17 65 -33 67 -12 2 -23 0 -26 -5z"/>
<path d="M7096 5939 c-9 -39 -23 -83 -31 -98 -31 -60 -92 -97 -187 -115 -34
-6 -38 -10 -38 -36 0 -27 4 -31 58 -45 139 -39 170 -69 198 -194 18 -84 25
-103 41 -108 17 -6 43 26 43 52 0 12 9 52 20 89 27 86 67 128 145 152 74 22
84 29 78 54 -4 13 -20 24 -47 30 -151 39 -181 74 -205 238 -5 41 -9 47 -33 50
-25 3 -27 0 -42 -69z"/>
<path d="M2096 4485 c-39 -44 -148 -235 -142 -250 4 -12 26 -15 111 -15 l106
0 107 111 c100 103 132 151 112 164 -5 3 -69 7 -141 9 -128 4 -133 3 -153 -19z"/>
<path d="M3673 4165 l-23 -16 0 -685 c0 -671 0 -684 20 -704 17 -17 33 -20
125 -20 104 0 105 0 110 25 3 14 7 37 10 51 l6 26 22 -24 c13 -14 54 -40 92
-59 67 -33 74 -34 185 -34 113 0 117 1 191 37 92 45 164 118 213 217 43 84 60
163 59 276 0 248 -124 435 -327 497 -101 31 -238 22 -322 -20 -33 -17 -66 -37
-73 -46 -8 -9 -17 -16 -22 -16 -5 0 -9 107 -9 239 0 203 -2 240 -16 251 -9 8
-54 15 -117 17 -83 4 -106 2 -124 -12z m579 -651 c92 -36 150 -123 156 -238
12 -196 -85 -319 -250 -318 -108 1 -162 35 -206 132 -32 71 -36 199 -9 276 45
130 184 196 309 148z"/>
<path d="M4939 4170 c-44 -13 -79 -42 -100 -81 -24 -48 -24 -82 0 -135 70
-154 301 -103 301 66 0 75 -46 132 -120 149 -51 12 -47 12 -81 1z"/>
<path d="M1950 4131 c-352 -49 -588 -331 -592 -706 -2 -139 19 -235 73 -342
80 -160 220 -276 402 -335 89 -29 97 -30 232 -25 157 6 216 20 334 82 237 125
375 406 341 697 -17 150 -65 268 -154 380 -85 107 -226 200 -352 232 -74 18
-212 27 -284 17z m174 -266 c151 -32 268 -140 310 -285 67 -239 -22 -479 -212
-568 -51 -24 -68 -27 -168 -27 -105 0 -113 1 -177 34 -148 75 -227 213 -228
401 0 94 10 153 41 225 54 126 171 211 315 228 17 2 35 5 40 5 6 1 41 -5 79
-13z"/>
<path d="M7740 4125 c-15 -18 -25 1 256 -492 l224 -392 0 -234 c0 -286 -10
-267 146 -267 72 0 114 4 122 12 9 9 12 80 12 258 l0 245 85 143 c47 79 97
164 111 190 27 49 79 137 208 358 75 129 91 176 60 188 -9 3 -73 6 -143 6
-152 0 -142 7 -226 -155 -32 -60 -77 -146 -100 -190 -24 -44 -62 -117 -85
-162 -42 -84 -55 -97 -67 -65 -4 9 -22 44 -41 77 -19 33 -75 141 -124 240 -50
98 -101 196 -114 217 l-24 38 -144 0 c-115 0 -146 -3 -156 -15z"/>
<path d="M5575 4024 c-160 -35 -157 -32 -154 -162 l3 -107 -78 -2 c-43 -1 -84
-7 -92 -13 -16 -14 -20 -174 -5 -198 10 -17 29 -20 111 -21 l65 -1 0 -278 0
-277 31 -66 c57 -120 138 -159 344 -166 87 -3 145 -1 164 6 l29 12 -6 92 c-3
51 -11 104 -18 120 -14 31 -28 33 -111 16 -48 -10 -61 -9 -93 7 -67 31 -75 64
-75 317 l0 217 78 0 c108 1 177 6 191 14 17 11 15 200 -3 215 -11 9 -48 10
-135 5 -69 -4 -121 -3 -122 2 -1 5 -4 68 -8 139 l-6 130 -45 2 c-25 0 -54 -1
-65 -3z"/>
<path d="M3387 3760 c-76 -19 -172 -87 -204 -144 -8 -14 -11 -5 -15 49 -3 37
-11 72 -17 78 -18 18 -211 12 -229 -7 -20 -19 -22 -957 -2 -981 10 -12 35 -15
119 -15 58 0 113 5 121 10 13 8 15 52 17 282 2 305 7 338 62 399 43 48 145 89
222 89 44 0 51 3 59 26 16 41 13 189 -5 204 -19 16 -82 21 -128 10z"/>
<path d="M6410 3755 c-143 -39 -244 -141 -257 -259 l-5 -43 78 -22 c125 -35
133 -34 161 21 13 26 35 56 49 67 58 45 198 34 250 -20 25 -27 50 -111 38
-130 -3 -5 -69 -9 -146 -9 -229 0 -340 -30 -414 -112 -52 -59 -67 -100 -67
-198 -1 -67 4 -96 22 -135 30 -68 91 -128 165 -162 55 -25 71 -28 166 -27 129
0 200 24 260 87 24 24 40 35 41 27 1 -29 9 -62 19 -81 9 -17 22 -19 104 -19
69 0 97 4 105 14 9 11 11 110 9 383 -4 406 -5 412 -71 499 -71 94 -179 135
-351 133 -61 -1 -131 -7 -156 -14z m312 -612 c5 -42 -10 -102 -34 -136 -31
-44 -90 -67 -175 -67 -68 0 -74 2 -107 34 -47 44 -50 100 -8 146 33 37 79 47
219 49 l102 1 3 -27z"/>
<path d="M4950 3750 l-95 -5 -7 -85 c-3 -47 -6 -264 -7 -482 -1 -479 -15 -438
143 -438 84 0 106 3 117 17 12 13 14 101 12 490 -1 331 -5 478 -12 487 -16 19
-42 22 -151 16z"/>
<path d="M7245 3411 c-11 -2 -23 -8 -27 -15 -11 -16 -10 -214 1 -220 18 -11
542 -9 553 2 13 13 23 139 14 186 -5 23 -14 37 -28 42 -22 7 -479 12 -513 5z"/>
<path d="M2606 2335 c-57 -56 -42 -89 24 -54 62 33 76 47 64 67 -19 30 -50 26
-88 -13z"/>
<path d="M4086 2226 c-47 -18 -94 -60 -112 -103 -17 -38 -18 -150 -3 -190 13
-34 55 -80 91 -99 15 -8 51 -14 80 -14 95 0 154 50 178 149 38 159 -97 307
-234 257z m109 -78 c34 -27 55 -75 55 -128 0 -45 -11 -73 -43 -107 -29 -32
-96 -32 -134 1 -25 22 -28 31 -31 103 -3 69 -1 81 18 106 40 50 91 60 135 25z"/>
<path d="M4510 2231 c-78 -16 -124 -74 -109 -139 10 -47 45 -75 123 -97 63
-19 96 -39 96 -60 0 -45 -103 -62 -140 -23 -11 12 -20 25 -20 30 0 4 -16 8
-35 8 -41 0 -46 -18 -15 -67 29 -49 71 -66 148 -61 59 4 67 7 98 41 27 29 34
45 34 76 0 61 -34 93 -124 120 -87 26 -104 40 -88 76 10 21 18 25 56 25 36 0
50 -5 69 -26 16 -17 32 -25 48 -22 54 7 25 77 -44 109 -45 20 -45 20 -97 10z"/>
<path d="M1514 2211 c-68 -42 -100 -115 -91 -212 6 -72 28 -112 79 -149 32
-24 51 -30 90 -30 84 0 139 40 163 118 6 20 3 22 -29 22 -28 0 -38 -6 -52 -30
-36 -61 -121 -55 -155 10 -23 43 -25 130 -3 171 21 41 72 62 113 48 17 -6 31
-14 31 -18 0 -3 11 -18 24 -32 18 -20 31 -25 51 -21 23 4 26 8 20 30 -10 41
-45 83 -81 98 -48 20 -123 18 -160 -5z"/>
<path d="M2606 2220 l-39 -5 -59 -175 c-32 -96 -61 -183 -64 -193 -5 -16 -1
-18 32 -15 34 3 39 7 51 45 17 50 35 58 108 48 52 -6 53 -7 65 -51 12 -43 14
-44 52 -44 28 0 39 4 35 13 -2 6 -30 91 -62 187 -32 96 -63 180 -69 185 -6 6
-29 9 -50 5z m34 -149 c11 -37 20 -73 20 -80 0 -11 -81 -16 -92 -6 -5 5 41
155 48 155 2 0 12 -31 24 -69z"/>
<path d="M3210 2211 c-79 -41 -121 -173 -86 -263 20 -48 58 -93 98 -114 59
-31 164 -9 211 44 50 55 61 176 25 250 -34 67 -87 102 -157 102 -36 0 -69 -7
-91 -19z m130 -56 c39 -20 60 -63 60 -123 0 -94 -38 -142 -112 -142 -62 1 -98
48 -98 130 0 76 36 133 90 143 14 2 26 5 28 6 2 0 16 -6 32 -14z"/>
<path d="M3645 2214 c-72 -37 -105 -97 -105 -189 0 -128 71 -205 188 -205 98
0 151 54 155 157 l2 58 -81 3 -82 3 -4 -31 c-3 -16 -2 -32 0 -35 3 -3 25 -5
49 -5 37 0 43 -3 43 -21 0 -26 -32 -56 -69 -64 -70 -15 -121 43 -121 138 0 95
32 137 105 137 30 0 44 -7 69 -35 22 -24 41 -35 60 -35 26 0 28 2 22 30 -13
68 -73 110 -154 110 -26 0 -60 -7 -77 -16z"/>
<path d="M6645 2216 c-63 -28 -105 -101 -105 -184 0 -129 74 -212 190 -212 77
0 121 30 156 105 52 111 8 249 -93 291 -41 18 -109 17 -148 0z m149 -87 c14
-16 28 -49 32 -75 20 -133 -87 -218 -170 -135 -27 27 -31 38 -34 98 -3 80 10
111 55 134 43 21 88 13 117 -22z"/>
<path d="M7390 2077 c0 -134 2 -153 21 -187 29 -52 80 -74 155 -68 52 4 62 9
90 42 40 46 44 68 44 227 l0 129 -34 0 -33 0 -5 -146 c-4 -146 -4 -147 -32
-171 -33 -28 -77 -25 -111 8 -18 17 -20 35 -23 163 l-3 144 -35 4 -34 4 0
-149z"/>
<path d="M7885 2218 c-101 -55 -132 -191 -72 -308 39 -75 138 -112 220 -81 30
12 73 66 82 104 7 26 5 27 -29 27 -29 0 -38 -5 -45 -23 -13 -34 -34 -47 -76
-49 -28 -1 -43 5 -68 30 -27 27 -32 40 -35 95 -5 79 14 122 64 143 43 18 78 5
109 -41 15 -23 26 -29 48 -27 19 2 27 9 27 24 0 34 -33 79 -72 99 -41 21 -121
25 -153 7z"/>
<path d="M8593 2211 c-55 -35 -87 -94 -91 -170 -3 -57 1 -74 25 -121 37 -72
79 -100 150 -100 114 0 183 79 183 207 0 68 -24 125 -69 168 -28 25 -41 30
-99 33 -54 2 -73 -1 -99 -17z m155 -74 c33 -31 47 -91 33 -153 -16 -72 -45
-96 -107 -92 -43 3 -51 7 -72 38 -20 30 -23 44 -20 102 4 78 28 120 74 128 39
8 65 1 92 -23z"/>
<path d="M1927 2213 c-4 -8 -34 -97 -97 -295 l-28 -88 33 0 c30 0 35 4 51 45
19 52 39 61 108 51 42 -7 46 -10 59 -49 12 -38 17 -42 50 -45 20 -2 37 0 37 5
0 4 -28 92 -62 196 l-63 187 -42 0 c-23 0 -44 -3 -46 -7z m89 -215 c5 -16 -2
-18 -45 -18 -28 0 -51 2 -51 3 0 5 38 117 46 137 6 13 13 -4 50 -122z"/>
<path d="M2137 2213 c-9 -9 -9 -53 1 -54 4 0 32 -1 62 -3 l55 -2 3 -162 2
-162 35 0 35 0 2 163 3 162 40 2 c22 1 46 2 53 2 7 1 12 14 12 31 l0 30 -148
0 c-82 0 -152 -3 -155 -7z"/>
<path d="M2860 2025 l0 -195 110 0 110 0 0 30 0 29 -72 3 -73 3 -3 163 -2 162
-35 0 -35 0 0 -195z"/>
<path d="M4930 2025 l0 -195 97 0 c84 0 101 3 139 25 56 33 84 90 84 172 0 90
-30 148 -97 182 -12 6 -67 11 -122 11 l-101 0 0 -195z m211 96 c25 -26 29 -37
29 -88 0 -96 -42 -143 -126 -143 l-34 0 0 130 0 130 51 0 c43 0 55 -5 80 -29z"/>
<path d="M5330 2025 l0 -195 130 0 130 0 0 30 0 30 -90 0 -90 0 0 53 0 52 75
-3 75 -4 0 31 0 31 -75 0 -75 0 0 55 0 55 85 0 85 0 0 30 0 30 -125 0 -125 0
0 -195z"/>
<path d="M5830 2025 l0 -195 35 0 34 0 3 68 3 67 64 3 c103 5 140 38 141 126
0 53 -3 61 -34 92 l-34 34 -106 0 -106 0 0 -195z m186 109 c20 -19 24 -31 19
-52 -3 -15 -10 -31 -15 -36 -11 -11 -107 -25 -115 -18 -8 8 -6 118 2 125 3 4
24 7 45 7 28 0 46 -7 64 -26z"/>
<path d="M6183 2025 l-3 -195 40 0 40 0 0 75 0 75 33 0 c31 0 35 -4 70 -75 37
-75 37 -75 77 -75 22 0 40 3 40 7 0 3 -16 35 -35 70 -19 35 -35 68 -35 74 0 6
13 22 30 35 54 46 49 142 -10 184 -24 17 -44 20 -137 20 l-108 0 -2 -195z
m205 108 c34 -47 -4 -93 -78 -93 l-50 0 0 61 0 62 58 -7 c35 -4 62 -13 70 -23z"/>
<path d="M6990 2025 l0 -195 90 0 c54 0 104 6 123 14 72 30 114 116 104 214
-12 116 -76 162 -225 162 l-92 0 0 -195z m193 113 c24 -12 47 -68 47 -112 0
-80 -53 -136 -129 -136 l-41 0 0 135 0 136 53 -7 c28 -4 60 -11 70 -16z"/>
<path d="M8172 2188 c3 -33 3 -33 56 -33 l52 1 0 -163 0 -163 35 0 35 0 0 166
0 167 51 -5 c46 -5 51 -3 60 19 5 13 9 29 9 34 0 5 -64 9 -151 9 l-150 0 3
-32z"/>
</g>
</svg>
