<?xml version="1.0" standalone="no"?>
<!DOCTYPE svg PUBLIC "-//W3C//DTD SVG 20010904//EN"
 "http://www.w3.org/TR/2001/REC-SVG-20010904/DTD/svg10.dtd">
<svg version="1.0" xmlns="http://www.w3.org/2000/svg"
 width="350.000000pt" height="350.000000pt" viewBox="0 0 350.000000 350.000000"
 preserveAspectRatio="xMidYMid meet">
<metadata>
Created by potrace 1.16, written by Peter Selinger 2001-2019
</metadata>
<g transform="translate(0.000000,350.000000) scale(0.100000,-0.100000)"
fill="#000000" stroke="none">
<path d="M3120 3170 c-14 -4 -45 -13 -70 -21 -54 -15 -128 -47 -230 -97 -78
-38 -207 -154 -281 -252 -19 -25 -44 -56 -56 -70 -55 -64 -65 -76 -83 -106
-19 -29 -24 -31 -99 -37 -89 -7 -152 -31 -206 -81 l-34 -32 -98 48 c-123 59
-167 74 -284 93 -323 52 -635 -51 -867 -287 -143 -145 -224 -293 -282 -515 -6
-26 -19 -47 -33 -54 -118 -62 -257 -181 -321 -274 -92 -133 -60 -293 73 -360
99 -50 389 -16 681 79 477 155 882 377 1143 626 l79 74 26 -32 c15 -18 39 -41
55 -51 l27 -18 -77 -70 c-69 -62 -287 -233 -297 -233 -2 0 -44 -26 -92 -59
-102 -67 -190 -112 -423 -218 -288 -130 -402 -168 -676 -222 -44 -9 -178 -22
-242 -24 -32 -1 -29 -6 14 -24 27 -11 72 -16 150 -17 l113 -1 32 -40 c50 -62
148 -153 208 -195 84 -57 215 -116 315 -141 145 -36 423 -31 530 11 11 4 38
13 60 20 48 15 186 83 229 113 99 70 200 168 272 265 37 50 113 188 116 209 1
5 8 24 16 43 34 79 62 222 62 310 l0 76 91 89 c202 199 214 221 211 393 l-2
124 73 86 c173 208 259 373 298 572 5 25 13 96 19 158 13 143 9 152 -63 151
-29 0 -63 -4 -77 -9z m64 -122 c-8 -87 -34 -232 -45 -248 -6 -10 -12 -11 -16
-5 -5 6 -56 53 -116 105 -85 74 -105 96 -95 106 24 22 211 89 260 93 15 1 16
-6 12 -51z m-122 -280 l57 -46 -48 -96 c-27 -52 -57 -106 -68 -120 -10 -13
-25 -34 -33 -46 -33 -50 -111 -138 -176 -200 -102 -96 -125 -114 -217 -174
l-85 -54 -30 18 c-16 10 -33 23 -37 30 -4 6 18 37 49 71 42 45 56 68 56 90 0
57 -28 48 -104 -35 l-71 -77 -37 26 -37 25 26 57 c14 32 36 89 50 128 62 169
301 489 431 575 l45 29 86 -78 c47 -42 112 -98 143 -123z m-754 -305 c-11 -25
-33 -80 -48 -122 l-27 -76 -109 -8 c-60 -4 -115 -6 -122 -5 -14 3 -8 12 96
134 75 90 125 120 204 123 l27 1 -21 -47z m488 -368 c7 -51 -1 -120 -19 -151
-15 -26 -56 -71 -133 -146 l-59 -57 2 122 c2 67 3 125 3 128 0 3 30 26 68 52
37 25 78 57 92 71 14 14 28 25 32 25 4 1 10 -19 14 -44z m-2282 -562 c6 -103
24 -196 62 -314 8 -24 -17 -30 -141 -36 -99 -5 -115 -4 -152 15 -22 12 -51 38
-63 57 -46 74 -3 185 110 285 44 39 154 110 171 110 3 0 9 -53 13 -117z"/>
<path d="M2714 2731 c-52 -32 -74 -68 -74 -123 0 -62 23 -104 72 -129 54 -28
113 -25 156 7 86 66 80 185 -13 239 -50 30 -99 32 -141 6z m123 -73 c50 -47
12 -138 -57 -138 -19 0 -40 9 -55 25 -73 73 37 184 112 113z"/>
<path d="M890 3044 c-6 -14 -10 -29 -10 -33 0 -15 -48 -52 -76 -60 -40 -11
-43 -37 -5 -46 34 -7 78 -53 87 -91 8 -30 44 -34 44 -4 0 42 29 79 70 91 49
15 50 39 3 51 -34 9 -66 46 -77 91 -8 34 -24 35 -36 1z"/>
<path d="M267 2363 c-2 -5 -7 -20 -10 -34 -9 -34 -35 -62 -74 -78 -36 -15 -45
-41 -14 -41 29 0 80 -47 89 -83 12 -47 36 -46 51 3 12 42 57 80 94 80 31 0 18
25 -25 45 -33 15 -48 31 -66 68 -21 44 -35 57 -45 40z"/>
<path d="M2972 1388 c-7 -7 -12 -22 -12 -35 0 -64 -65 -135 -141 -154 -28 -8
-54 -19 -56 -26 -8 -20 16 -43 44 -43 66 0 153 -90 153 -160 0 -19 7 -33 19
-39 24 -13 33 -2 49 64 14 57 72 120 119 130 91 20 97 52 14 74 -67 18 -116
64 -131 123 -20 73 -34 90 -58 66z"/>
<path d="M2340 411 c-16 -49 -46 -78 -97 -96 -44 -15 -50 -39 -11 -43 40 -5
94 -60 107 -110 16 -56 37 -55 52 3 13 51 67 105 105 105 28 0 40 29 16 36
-78 25 -105 49 -119 104 -13 50 -37 50 -53 1z"/>
</g>
</svg>
