<?xml version="1.0" standalone="no"?>
<!DOCTYPE svg PUBLIC "-//W3C//DTD SVG 20010904//EN"
 "http://www.w3.org/TR/2001/REC-SVG-20010904/DTD/svg10.dtd">
<svg version="1.0" xmlns="http://www.w3.org/2000/svg"
 width="350.000000pt" height="350.000000pt" viewBox="0 0 350.000000 350.000000"
 preserveAspectRatio="xMidYMid meet">

<g transform="translate(0.000000,350.000000) scale(0.100000,-0.100000)"
fill="#000000" stroke="none">
<path d="M3135 3169 c-81 -19 -173 -53 -273 -101 -86 -41 -119 -63 -189 -131
-80 -76 -283 -318 -283 -336 0 -4 -30 -11 -67 -14 -93 -8 -159 -32 -215 -79
l-48 -39 -91 45 c-115 58 -226 91 -356 106 -240 28 -500 -49 -711 -212 -172
-133 -332 -392 -366 -594 -6 -36 -13 -44 -72 -79 -86 -53 -128 -85 -198 -153
-103 -100 -140 -169 -139 -261 1 -66 17 -103 65 -147 62 -59 91 -68 218 -67
63 0 142 6 175 13 405 82 865 268 1180 477 149 99 246 174 337 261 l47 45 53
-49 c29 -27 54 -51 55 -54 3 -9 -170 -158 -263 -227 -205 -151 -363 -240 -654
-368 -223 -98 -304 -127 -453 -163 -148 -36 -210 -47 -347 -63 -88 -10 -101
-13 -80 -22 14 -6 80 -12 148 -13 l122 -3 39 -48 c87 -109 208 -204 336 -264
270 -127 590 -124 869 7 77 35 206 122 265 177 48 46 142 164 177 222 87 145
139 310 151 475 l6 95 121 128 c171 181 171 181 171 349 l0 136 45 49 c178
189 300 425 329 633 38 272 37 281 -26 279 -21 -1 -56 -5 -78 -10z m49 -121
c-8 -87 -34 -232 -45 -248 -6 -10 -12 -11 -16 -5 -5 6 -56 53 -115 104 -60 52
-108 98 -108 101 0 7 158 70 220 88 67 19 70 18 64 -40z m-292 -134 c99 -87
113 -99 166 -142 28 -24 52 -50 52 -58 0 -28 -107 -218 -147 -262 -7 -7 -20
-25 -29 -41 -16 -27 -175 -188 -241 -243 -18 -15 -70 -52 -116 -82 l-85 -54
-30 18 c-16 10 -33 23 -37 30 -4 6 18 37 49 71 42 45 56 68 56 90 0 58 -28 48
-104 -35 l-71 -77 -37 26 c-21 14 -38 28 -38 30 0 2 8 19 18 37 11 18 34 74
52 123 18 50 61 136 96 193 106 172 328 422 376 422 10 0 41 -21 70 -46z
m-586 -456 c-13 -29 -33 -82 -46 -118 -12 -36 -25 -68 -29 -71 -3 -4 -59 -10
-125 -14 -137 -8 -133 -18 -34 102 97 117 146 149 230 152 l27 1 -23 -52z
m-791 -228 c-3 -5 -10 -10 -16 -10 -5 0 -9 5 -9 10 0 6 7 10 16 10 8 0 12 -4
9 -10z m-335 -65 c0 -8 -4 -15 -10 -15 -5 0 -7 7 -4 15 4 8 8 15 10 15 2 0 4
-7 4 -15z m1614 -56 c21 -104 -3 -166 -101 -264 -120 -120 -108 -122 -106 18
2 67 3 125 3 128 0 4 28 25 63 48 34 22 76 54 92 70 17 17 33 30 36 30 4 1 9
-13 13 -30z m-1048 -36 c-10 -10 -19 5 -10 18 6 11 8 11 12 0 2 -7 1 -15 -2
-18z m519 2 l29 -24 -28 -30 c-30 -32 -31 -58 -3 -75 16 -9 24 -5 51 28 33 38
33 38 60 21 14 -9 26 -19 26 -21 0 -4 -117 -84 -122 -84 -2 0 -21 22 -42 50
l-38 49 13 56 c7 30 15 55 18 55 3 -1 19 -12 36 -25z m-675 -155 c0 -5 -7 -10
-15 -10 -8 0 -15 5 -15 10 0 6 7 10 15 10 8 0 15 -4 15 -10z m-720 -74 c0 -2
3 -11 6 -20 4 -12 0 -16 -15 -16 -14 0 -21 6 -21 20 0 11 7 20 15 20 8 0 15
-2 15 -4z m350 -86 c0 -5 -4 -10 -10 -10 -5 0 -10 5 -10 10 0 6 5 10 10 10 6
0 10 -4 10 -10z m-685 -384 c9 -38 25 -94 35 -124 11 -31 19 -57 17 -58 -1 -2
-53 -8 -114 -14 -137 -14 -181 -5 -235 50 -37 37 -42 53 -38 115 6 84 142 234
268 295 l37 18 7 -106 c4 -59 15 -138 23 -176z"/>
<path d="M2715 2731 c-51 -31 -68 -58 -72 -114 -8 -100 54 -162 155 -154 59 4
95 30 118 84 29 69 8 133 -58 176 -50 32 -100 35 -143 8z m122 -73 c50 -47 12
-138 -57 -138 -19 0 -40 9 -55 25 -73 73 37 184 112 113z"/>
<path d="M886 3030 c-7 -39 -47 -79 -86 -87 -34 -6 -35 -26 -2 -31 32 -5 81
-56 88 -91 9 -43 29 -39 43 8 11 40 48 75 85 82 32 6 29 26 -4 32 -37 8 -76
48 -85 88 -9 38 -31 37 -39 -1z"/>
<path d="M270 2353 c0 -34 -40 -84 -80 -101 -41 -18 -47 -34 -14 -41 37 -7 74
-42 85 -82 14 -45 30 -46 41 -3 9 37 46 72 84 83 41 11 40 26 -5 40 -42 12
-77 50 -82 90 -5 29 -29 41 -29 14z"/>
<path d="M2975 1388 c-2 -7 -9 -33 -15 -57 -16 -63 -73 -120 -135 -136 -79
-20 -71 -51 20 -70 48 -10 101 -75 116 -140 9 -42 16 -55 30 -55 12 0 21 10
24 28 4 15 8 36 10 47 7 32 42 82 69 100 14 9 47 22 73 29 36 9 48 17 48 32 0
15 -10 21 -47 27 -63 12 -124 64 -139 120 -17 63 -27 87 -39 87 -6 0 -13 -6
-15 -12z"/>
<path d="M2346 418 c-9 -47 -44 -87 -91 -102 -22 -8 -40 -19 -40 -26 0 -7 18
-18 40 -26 39 -13 85 -57 85 -81 0 -6 5 -24 11 -40 10 -27 11 -27 25 -9 8 11
14 29 14 40 0 32 41 75 85 90 50 18 51 34 2 51 -47 16 -74 46 -87 97 -13 47
-36 50 -44 6z"/>
</g>
</svg>
