<svg width="800" height="400" xmlns="http://www.w3.org/2000/svg">
  <!-- Fondo -->
  <rect width="800" height="400" fill="#FFF0F5"/>
  
  <!-- Espejo -->
  <rect x="300" y="50" width="200" height="250" rx="5" fill="#C0C0C0"/>
  <rect x="310" y="60" width="180" height="230" rx="3" fill="#F5F5F5"/>
  <rect x="330" y="290" width="140" height="20" fill="#C0C0C0"/>
  <rect x="380" y="310" width="40" height="50" fill="#C0C0C0"/>
  <ellipse cx="400" cy="370" rx="80" ry="10" fill="#A9A9A9"/>
  
  <!-- Tijeras -->
  <line x1="200" y1="200" x2="240" y2="160" stroke="#C0C0C0" stroke-width="8" stroke-linecap="round"/>
  <line x1="200" y1="160" x2="240" y2="200" stroke="#C0C0C0" stroke-width="8" stroke-linecap="round"/>
  <circle cx="190" cy="210" r="10" fill="#C0C0C0"/>
  <circle cx="190" cy="150" r="10" fill="#C0C0C0"/>
  
  <!-- Peine -->
  <rect x="550" y="160" width="80" height="20" rx="5" fill="#800080"/>
  <rect x="550" y="160" width="5" height="40" fill="#800080"/>
  <rect x="560" y="160" width="5" height="30" fill="#800080"/>
  <rect x="570" y="160" width="5" height="35" fill="#800080"/>
  <rect x="580" y="160" width="5" height="40" fill="#800080"/>
  <rect x="590" y="160" width="5" height="30" fill="#800080"/>
  <rect x="600" y="160" width="5" height="35" fill="#800080"/>
  <rect x="610" y="160" width="5" height="40" fill="#800080"/>
  <rect x="620" y="160" width="5" height="30" fill="#800080"/>
  
  <!-- Secador de Pelo -->
  <rect x="550" y="220" width="30" height="80" rx="5" fill="#FF69B4"/>
  <rect x="550" y="220" width="80" height="30" rx="10" fill="#FF69B4"/>
  <circle cx="585" cy="235" r="10" fill="#FFD700"/>
  
  <!-- Productos de Belleza -->
  <rect x="150" y="270" width="30" height="60" rx="5" fill="#FF6347"/>
  <rect x="150" y="260" width="30" height="10" fill="#FF4500"/>
  <rect x="190" y="280" width="25" height="50" rx="5" fill="#4682B4"/>
  <rect x="190" y="270" width="25" height="10" fill="#4169E1"/>
  <rect x="225" y="290" width="20" height="40" rx="5" fill="#9370DB"/>
  <rect x="225" y="280" width="20" height="10" fill="#8A2BE2"/>
  
  <!-- Texto -->
  <text x="400" y="30" font-family="Arial" font-size="40" font-weight="bold" text-anchor="middle" fill="#FF1493">Peluquería Estilo Único</text>
  <text x="400" y="380" font-family="Arial" font-size="24" text-anchor="middle" fill="#800080">Belleza y estilo profesional</text>
</svg> 