<svg width="800" height="400" xmlns="http://www.w3.org/2000/svg">
  <!-- Fondo -->
  <rect width="800" height="400" fill="#F5F5F5"/>
  
  <!-- Garaje -->
  <rect x="150" y="100" width="500" height="250" fill="#E0E0E0" stroke="#BBBBBB" stroke-width="4"/>
  <rect x="200" y="150" width="400" height="200" fill="#D0D0D0"/>
  
  <!-- Puerta de garaje -->
  <rect x="200" y="150" width="400" height="20" fill="#AAAAAA"/>
  <rect x="200" y="170" width="400" height="20" fill="#999999"/>
  <rect x="200" y="190" width="400" height="20" fill="#AAAAAA"/>
  <rect x="200" y="210" width="400" height="20" fill="#999999"/>
  <rect x="200" y="230" width="400" height="20" fill="#AAAAAA"/>
  <rect x="200" y="250" width="400" height="20" fill="#999999"/>
  <rect x="200" y="270" width="400" height="20" fill="#AAAAAA"/>
  <rect x="200" y="290" width="400" height="20" fill="#999999"/>
  <rect x="200" y="310" width="400" height="20" fill="#AAAAAA"/>
  <rect x="200" y="330" width="400" height="20" fill="#999999"/>
  
  <!-- Carro -->
  <rect x="300" y="280" width="200" height="50" rx="10" fill="#FF6347"/>
  <rect x="320" y="240" width="160" height="40" rx="10" fill="#FF6347"/>
  <circle cx="340" cy="330" r="20" fill="#333333" stroke="#000000" stroke-width="2"/>
  <circle cx="340" cy="330" r="10" fill="#666666"/>
  <circle cx="460" cy="330" r="20" fill="#333333" stroke="#000000" stroke-width="2"/>
  <circle cx="460" cy="330" r="10" fill="#666666"/>
  
  <!-- Herramientas -->
  <rect x="550" y="200" width="40" height="10" rx="2" fill="#666666"/>
  <rect x="570" y="180" width="10" height="40" rx="2" fill="#666666"/>
  <circle cx="570" cy="180" r="15" fill="#C0C0C0"/>
  
  <!-- Texto -->
  <text x="400" y="80" font-family="Arial" font-size="40" font-weight="bold" text-anchor="middle" fill="#2563EB">Taller Mecánico Rodríguez</text>
  <text x="400" y="380" font-family="Arial" font-size="24" text-anchor="middle" fill="#666666">Reparaciones y Repuestos</text>
</svg> 