<svg width="800" height="400" xmlns="http://www.w3.org/2000/svg">
  <!-- Fondo -->
  <rect width="800" height="400" fill="#F0F8FF"/>
  
  <!-- Escritorio/Mesa -->
  <rect x="150" y="250" width="500" height="20" fill="#8B4513"/>
  <rect x="170" y="270" width="10" height="100" fill="#A0522D"/>
  <rect x="620" y="270" width="10" height="100" fill="#A0522D"/>
  
  <!-- Smartphone -->
  <rect x="250" y="150" width="70" height="120" rx="10" fill="#000000"/>
  <rect x="255" y="160" width="60" height="100" fill="#87CEEB"/>
  <circle cx="285" cy="190" r="20" fill="#FFFFFF"/>
  <circle cx="285" cy="190" r="10" fill="#3CB371"/>
  <rect x="280" y="240" width="10" height="10" rx="5" fill="#FFFFFF"/>
  
  <!-- Tableta -->
  <rect x="350" y="170" width="120" height="80" rx="5" fill="#000000"/>
  <rect x="355" y="175" width="110" height="70" fill="#87CEEB"/>
  <circle cx="410" cy="210" r="15" fill="#FFFFFF"/>
  <circle cx="410" cy="210" r="7.5" fill="#3CB371"/>
  
  <!-- Laptop -->
  <rect x="500" y="180" width="150" height="10" fill="#A9A9A9"/>
  <rect x="500" y="120" width="150" height="60" fill="#A9A9A9"/>
  <rect x="505" y="125" width="140" height="50" fill="#87CEEB"/>
  <circle cx="575" cy="150" r="10" fill="#FFFFFF"/>
  <circle cx="575" cy="150" r="5" fill="#3CB371"/>
  
  <!-- Herramientas -->
  <rect x="200" y="180" width="20" height="5" rx="2" fill="#C0C0C0"/>
  <rect x="220" y="180" width="5" height="20" rx="2" fill="#C0C0C0"/>
  <rect x="200" y="220" width="25" height="4" rx="2" fill="#C0C0C0"/>
  <rect x="200" y="205" width="25" height="4" rx="2" fill="#C0C0C0"/>
  <rect x="200" y="190" width="25" height="4" rx="2" fill="#C0C0C0"/>
  
  <!-- Circuitos (fondo) -->
  <path d="M0 50 L 80 50 L 100 70 L 150 70 L 170 50 L 250 50 L 270 70 L 320 70 L 340 50 L 420 50 L 440 70 L 500 70 L 520 50 L 600 50 L 620 70 L 700 70 L 720 50 L 800 50" stroke="#3CB371" stroke-width="2" fill="none"/>
  <path d="M0 30 L 60 30 L 80 10 L 130 10 L 150 30 L 230 30 L 250 10 L 300 10 L 320 30 L 400 30 L 420 10 L 480 10 L 500 30 L 580 30 L 600 10 L 680 10 L 700 30 L 780 30 L 800 30" stroke="#4682B4" stroke-width="2" fill="none"/>
  
  <!-- Texto -->
  <text x="400" y="80" font-family="Arial" font-size="40" font-weight="bold" text-anchor="middle" fill="#2563EB">Reparación de Celulares Y Más</text>
  <text x="400" y="370" font-family="Arial" font-size="24" text-anchor="middle" fill="#666666">Servicio técnico profesional</text>
</svg> 