<?xml version="1.0" encoding="UTF-8"?>
<svg version="1.1" xmlns="http://www.w3.org/2000/svg" width="1024" height="1024">
<path d="M0 0 C337.92 0 675.84 0 1024 0 C1024 337.92 1024 675.84 1024 1024 C686.08 1024 348.16 1024 0 1024 C0 686.08 0 348.16 0 0 Z " fill="#041321" transform="translate(0,0)"/>
<path d="M0 0 C1.13549191 -0.01043099 2.27098383 -0.02086198 3.44088459 -0.03160906 C4.68357703 -0.02268617 5.92626947 -0.01376328 7.20661926 -0.00457001 C8.5438133 -0.00917946 9.88100228 -0.01553268 11.21818066 -0.02347898 C14.89147863 -0.04018971 18.56436135 -0.0319183 22.23766088 -0.01953411 C26.19956125 -0.01049297 30.16138964 -0.02444867 34.12327576 -0.0354538 C41.88411776 -0.05325366 49.64480514 -0.04939253 57.40565324 -0.03780323 C63.71223613 -0.02877494 70.01877566 -0.02754229 76.32536316 -0.0318985 C77.22245914 -0.03251143 78.11955511 -0.03312436 79.04383582 -0.03375587 C80.86618751 -0.03503475 82.68853918 -0.0363316 84.51089084 -0.03764623 C101.60485055 -0.04905633 118.69872449 -0.0359316 135.79267013 -0.01444477 C150.46463168 0.00342661 165.13646664 0.00032262 179.8084259 -0.01811981 C196.8406155 -0.03951895 213.87272991 -0.04795765 230.90493107 -0.03567076 C232.72063254 -0.03439654 234.53633403 -0.03313906 236.35203552 -0.0318985 C237.24542875 -0.0312814 238.13882198 -0.03066429 239.05928773 -0.03002849 C245.35934228 -0.02657272 251.65934919 -0.03240883 257.95939636 -0.04181671 C265.63558198 -0.05302745 273.31160396 -0.05001619 280.9877708 -0.02869374 C284.90538208 -0.01817077 288.82272039 -0.01408249 292.74032974 -0.02729034 C296.32546929 -0.03919464 299.91008239 -0.03268486 303.49517405 -0.01138014 C305.40895457 -0.00478312 307.32277153 -0.01786784 309.23651409 -0.03160906 C310.93975196 -0.01596257 310.93975196 -0.01596257 312.67739868 0 C313.65702481 0.00064941 314.63665094 0.00129882 315.64596272 0.00196791 C319.12487015 0.64975222 320.80088662 2.08549618 323.33869934 4.50336456 C324.81867981 7.13251495 324.81867981 7.13251495 326.08088684 10.28852081 C326.44523331 11.18499077 326.44523331 11.18499077 326.81694031 12.09957123 C327.67463118 14.22774862 328.50722013 16.36481451 329.33869934 18.50336456 C330.02632767 20.2480712 330.71416535 21.99269534 331.4021759 23.73725128 C333.78070225 29.79563164 336.1228684 35.86784292 338.46369934 41.94086456 C339.30999675 44.13146045 340.15651549 46.32197084 341.00325012 48.51239777 C342.6780158 52.84555131 344.35153172 57.17918447 346.02424622 61.51313019 C348.03316905 66.71587327 350.05055189 71.91527054 352.07307434 77.11273956 C352.61852159 78.51580131 353.16393324 79.91887691 353.70930481 81.32196808 C354.6703314 83.79441769 355.63310013 86.26616199 356.59700012 88.73749542 C358.81034843 94.44009772 360.98190228 100.15791739 363.09651184 105.89789581 C363.50272766 106.99593536 363.90894348 108.09397491 364.32746887 109.22528839 C368.48946955 122.71712399 366.58383035 136.8468751 360.83869934 149.56586456 C357.27597796 156.25704527 351.36985889 165.12004939 344.33094406 168.45446014 C341.6289617 169.85215309 340.16447384 171.04504438 338.33869934 173.50336456 C337.10951969 179.4921172 337.31015991 185.44002569 337.4021759 191.53070831 C337.40111803 193.39376083 337.39648549 195.25681424 337.3885498 197.11985016 C337.37908056 201.12752995 337.39474223 205.13404426 337.42992401 209.14157867 C337.4852786 215.47843484 337.48404568 221.8145128 337.47511292 228.15155792 C337.46761105 238.17422303 337.49735953 248.19637085 337.54333186 258.21892071 C337.62534927 276.16807849 337.66272265 294.11725176 337.65872359 312.06659412 C337.65903701 318.3657705 337.68166697 324.6643607 337.72225904 330.96340179 C337.74399134 334.88168143 337.74958749 338.79987006 337.75118446 342.7182045 C337.75543957 344.53468445 337.76661414 346.35116341 337.78523064 348.16755295 C337.80981063 350.64841487 337.80977853 353.12812806 337.80384827 355.60907745 C337.82367433 356.68564307 337.82367433 356.68564307 337.84390092 357.78395748 C337.79518662 362.79516926 336.48628383 365.64517823 333.33869934 369.50336456 C330.67106755 370.83718046 328.64499742 370.63252669 325.6561079 370.63758564 C323.83120241 370.64427241 323.83120241 370.64427241 321.96943015 370.65109426 C320.60710219 370.65100495 319.24477423 370.65081508 317.88244629 370.65053558 C316.4447273 370.65383326 315.00700924 370.65755862 313.56929237 370.66167706 C309.60431347 370.67171607 305.63934972 370.6754169 301.67435992 370.67806637 C297.40363266 370.68196377 293.13291746 370.69154244 288.86219788 370.70027924 C278.54182384 370.72005896 268.22144881 370.73011146 257.90106055 370.73900703 C253.04474541 370.74338719 248.18843136 370.74875467 243.33211708 370.7539959 C227.19529668 370.77100917 211.05847697 370.78550452 194.92164898 370.79274464 C190.73229662 370.79465463 186.54294426 370.79657495 182.35359192 370.79853058 C180.79166892 370.79925619 180.79166892 370.79925619 179.19819192 370.79999646 C162.32079568 370.80830114 145.44347022 370.833645 128.56610491 370.86611126 C111.250836 370.89914922 93.9356031 370.91719041 76.6203025 370.92038888 C66.89335576 370.92255693 57.16651226 370.93134871 47.43959618 370.95685005 C39.15767062 370.97851248 30.87587337 370.9866295 22.5939227 370.97688327 C18.36645781 370.97232566 14.13925787 370.9743091 9.91182899 370.99364471 C6.04349457 371.01118551 2.17562016 371.01035333 -1.69271853 370.99474742 C-3.0938207 370.99235745 -4.49495397 370.99676647 -5.89600841 371.00857607 C-7.79767779 371.02361543 -9.69950365 371.01167635 -11.6011858 370.99834919 C-13.18698042 370.9998144 -13.18698042 370.9998144 -14.8048113 371.00130922 C-18.38691206 370.37687562 -20.06299651 368.99496463 -22.66130066 366.50336456 C-24.16511817 363.49572955 -23.76782726 360.41304944 -23.73204041 357.11701202 C-23.72780603 356.34648388 -23.72357165 355.57595574 -23.71920896 354.78207827 C-23.70932107 353.08744048 -23.69711141 351.3928151 -23.68292427 349.69820786 C-23.65182202 345.97613781 -23.63173192 342.25402814 -23.61066961 338.53188992 C-23.5991415 336.52652865 -23.58700014 334.52117083 -23.57429361 332.51581669 C-23.52820038 325.1432148 -23.5028348 317.77074969 -23.49021912 310.39801788 C-23.48838458 309.3289204 -23.48655004 308.25982291 -23.48465991 307.15832853 C-23.47756271 302.74558536 -23.4712573 298.3328416 -23.46556234 293.9200964 C-23.448748 281.38785085 -23.41099523 268.85651681 -23.30827332 256.32465363 C-23.22685457 246.37592487 -23.19139032 236.42823243 -23.20978761 226.47917032 C-23.21781708 221.21410929 -23.20280026 215.95140197 -23.13217926 210.68675995 C-23.06621968 205.72808046 -23.06149171 200.77303895 -23.10279274 195.81412888 C-23.10722193 193.99927548 -23.08959608 192.18420652 -23.04771233 190.36983109 C-22.57235352 181.11974586 -22.57235352 181.11974586 -25.93960667 172.82625008 C-28.53558194 170.30555871 -31.34335725 168.3647494 -34.43875504 166.50886536 C-44.40017503 160.30953165 -50.11819699 148.04757636 -53.03630066 137.00336456 C-56.10513886 119.69764813 -49.79421744 104.62029333 -43.66130066 88.81586456 C-42.96114155 86.99689663 -42.26152862 85.17771839 -41.56242371 83.35834503 C-39.6737977 78.44952193 -37.77573823 73.54439686 -35.87559509 68.64002228 C-34.1956244 64.30047094 -32.52121534 59.95878 -30.84638977 55.61724091 C-28.72499352 50.11986543 -26.59981972 44.62395362 -24.47380066 39.12836456 C-23.86628967 37.55727432 -23.86628967 37.55727432 -23.24650574 35.95444489 C-21.03794359 30.24702756 -18.81652206 24.54497508 -16.57688904 18.84967804 C-15.76246174 16.76260291 -14.96698983 14.66962812 -14.1783905 12.5727005 C-13.76411804 11.50567902 -13.34984558 10.43865753 -12.92301941 9.33930206 C-12.59648376 8.47611359 -12.26994812 7.61292511 -11.93351746 6.72357941 C-9.10143242 1.78115351 -5.56651936 0.00369013 0 0 Z " fill="#F1F1F2" transform="translate(355.6613006591797,296.4966354370117)"/>
<path d="M0 0 C1.36186696 0.00056958 1.36186696 0.00056958 2.75124639 0.00115067 C4.31653588 -0.00183591 4.31653588 -0.00183591 5.91344738 -0.00488281 C7.65416843 -0.00051355 7.65416843 -0.00051355 9.43005556 0.00394398 C10.65189214 0.00308955 11.87372872 0.00223513 13.13259065 0.00135481 C16.53942306 -0.00001342 19.94619873 0.00313423 23.3530243 0.00813287 C27.021071 0.01243393 30.68911581 0.0109912 34.35716432 0.0102306 C40.71741906 0.00970515 47.07766358 0.01285419 53.43791574 0.01846844 C62.6338782 0.02658054 71.8298357 0.02919836 81.02580135 0.03045643 C95.94407912 0.03264741 110.86235143 0.03930873 125.78062624 0.04875904 C140.27606867 0.05793198 154.77150962 0.06501339 169.26695436 0.06926686 C170.60622779 0.06966094 170.60622779 0.06966094 171.97255725 0.07006299 C176.45152392 0.07136798 180.93049059 0.0726317 185.40945727 0.07387489 C222.59251028 0.08424893 259.77555709 0.10186849 296.95860475 0.1241985 C297.1592299 0.65609268 297.35985504 1.18798686 297.56655973 1.73599905 C299.68233977 7.34493209 301.79903629 12.95351868 303.9162311 18.56191784 C304.70297869 20.64634252 305.48950378 22.73085119 306.2757892 24.81545025 C312.06701028 40.16850294 317.93477706 55.48575424 323.95860475 70.7491985 C325.11883698 73.6968286 326.27821036 76.6447939 327.43687624 79.59304005 C328.13583304 81.37082746 328.83578983 83.14822221 329.53697389 84.92513233 C329.99511476 86.08835514 329.99511476 86.08835514 330.462511 87.2750774 C330.72878298 87.94987141 330.99505495 88.62466542 331.26939577 89.31990772 C334.15498104 96.87412567 334.2559605 105.86350987 331.900011 113.600761 C327.48458098 123.05384966 320.69807317 129.3945654 310.95860475 133.1241985 C300.66850791 136.57082102 288.43672038 136.80221527 278.38047975 132.444511 C267.37163153 126.44291309 260.88537442 117.57259132 255.415636 106.507011 C253.8379787 103.926928 252.56407559 102.63832117 249.95860475 101.1241985 C244.4895004 100.60333141 241.39850077 100.61358304 236.95860475 104.1241985 C235.24271041 106.75209123 233.930442 109.543583 232.58360475 112.3741985 C226.58448747 124.2129018 219.9598497 130.30271341 207.103136 134.76872975 C197.21465731 136.40780363 186.76705359 136.14642243 177.95860475 131.1241985 C177.18130007 130.70009693 176.40399538 130.27599537 175.603136 129.83904225 C166.39999866 124.30482733 161.73109608 116.38428219 157.51329225 106.725761 C155.68260258 103.66234561 154.18116289 102.59834743 150.95860475 101.1241985 C148.9313583 100.62487908 148.9313583 100.62487908 146.95860475 100.6866985 C145.99954225 100.65769459 145.99954225 100.65769459 145.02110475 100.62810475 C141.87379723 101.38512758 140.26849155 102.87664198 137.95860475 105.1241985 C136.11375377 108.31354108 136.11375377 108.31354108 134.58360475 111.8741985 C130.25716359 121.03572517 125.10839795 127.5493019 115.95860475 132.1241985 C115.33985475 132.443886 114.72110475 132.7635735 114.08360475 133.0929485 C104.73060587 137.0387449 91.85206078 136.69861155 82.45860475 133.1866985 C71.76550466 127.8327739 66.03808618 120.5487054 61.00084108 109.97673756 C58.53028449 104.64257112 58.53028449 104.64257112 53.95860475 101.1241985 C51.77759046 100.61808355 51.77759046 100.61808355 49.52110475 100.6866985 C48.40928835 100.65769459 48.40928835 100.65769459 47.275011 100.62810475 C43.97976738 101.33383146 42.35920652 102.78646027 39.95860475 105.1241985 C38.41278617 107.78970463 38.41278617 107.78970463 37.20860475 110.7491985 C31.47991697 122.70218572 23.29720294 129.2882304 11.20079225 134.257011 C0.69378607 137.06731867 -12.48862494 136.39693713 -22.04139525 131.1241985 C-30.13995231 126.14477481 -36.47656181 119.42211117 -39.04139525 110.1241985 C-40.12418606 98.9633031 -38.48051254 90.49930357 -34.04139525 80.1866985 C-33.50485519 78.88145446 -32.97142624 77.57492805 -32.44080931 76.2672649 C-31.28553505 73.4262979 -30.11738954 70.59108647 -28.94178587 67.75847584 C-25.78680371 60.11366395 -22.82536445 52.39153867 -19.83366209 44.68178517 C-18.79874816 42.01812343 -17.75960591 39.35615308 -16.71888548 36.69475514 C-12.80466175 26.68350994 -8.91629221 16.66415622 -5.15955931 6.59246022 C-2.74669349 0.16710884 -2.74669349 0.16710884 0 0 Z " fill="#051321" transform="translate(365.0413952469826,319.8758015036583)"/>
<path d="M0 0 C0.66 0 1.32 0 2 0 C3.04755745 1.14576596 4.03809717 2.3439356 5 3.5625 C14.35274971 14.52245101 28.80753214 21.95988426 43.16357422 23.18457031 C61.79260864 24.26869666 78.43311649 19.82739721 92.6875 7.25 C95.20790107 4.8904756 97.07767736 2.88348396 99 0 C99.66 0 100.32 0 101 0 C102.41015625 1.50390625 102.41015625 1.50390625 104.0625 3.5625 C113.7368259 14.85253806 127.17583381 21.85156721 142.06103516 23.18457031 C160.09104797 24.29276035 175.81623837 19.60349193 189.79296875 8.00390625 C192.5309864 5.51788315 194.78346474 2.95538035 197 0 C197.99 0.845625 198.98 1.69125 200 2.5625 C200.64839844 3.11164063 201.29679687 3.66078125 201.96484375 4.2265625 C203.25847141 5.35383113 204.52565136 6.51277349 205.75390625 7.7109375 C220.0749078 21.38239038 236.71421319 23 256 23 C256 77.78 256 132.56 256 189 C225.64 189 195.28 189 164 189 C163.96132813 176.41810547 163.96132813 176.41810547 163.921875 163.58203125 C163.89351362 157.59769384 163.86265249 151.61341034 163.8281765 145.62910938 C163.78383455 137.87440207 163.74541661 130.11981236 163.72900391 122.36499023 C163.71460119 115.5697161 163.67949928 108.77480114 163.63169098 101.97968102 C163.6168371 99.38534238 163.6089567 96.79095428 163.60811615 94.19657326 C163.60575691 90.56662526 163.57875909 86.93764334 163.54589844 83.30786133 C163.5509288 82.2318013 163.55595917 81.15574127 163.56114197 80.04707336 C163.49814869 75.55861441 163.45856687 72.78080275 161.15338135 68.85575867 C157.95860489 66.10253797 155.37061322 65.87396906 151.30703735 65.85955811 C150.34251144 65.85384796 149.37798553 65.84813782 148.38423157 65.84225464 C146.79919075 65.84057785 146.79919075 65.84057785 145.18212891 65.83886719 C144.06806168 65.83390228 142.95399445 65.82893738 141.8061676 65.82382202 C138.11295967 65.80919156 134.41979468 65.80239726 130.7265625 65.796875 C128.1644999 65.79112473 125.60243732 65.78536698 123.04037476 65.77960205 C118.35254331 65.77043398 113.66472908 65.76413439 108.97689021 65.7611053 C102.08034226 65.75662431 95.18399248 65.73907284 88.28750479 65.7101047 C82.31115708 65.68587408 76.33490306 65.67816056 70.35850143 65.67642975 C67.81715185 65.67339914 65.27580319 65.66535698 62.73448563 65.65224457 C59.18172368 65.63522053 55.62944616 65.63705558 52.07666016 65.64355469 C50.49769203 65.62973251 50.49769203 65.62973251 48.88682556 65.6156311 C41.90127969 65.56782982 41.90127969 65.56782982 36 69 C34.13825841 72.04165067 33.74452431 74.34325594 33.7215271 77.88482666 C33.71036362 78.86636719 33.69920013 79.84790771 33.68769836 80.85919189 C33.68553818 81.92949646 33.68337799 82.99980103 33.68115234 84.10253906 C33.67110672 85.23453735 33.6610611 86.36653564 33.65071106 87.53283691 C33.61980305 91.27709441 33.60282252 95.02128016 33.5859375 98.765625 C33.56723201 101.36066305 33.54765907 103.95569498 33.5272522 106.55072021 C33.48111349 112.68460643 33.44372873 118.81848886 33.41057932 124.95245719 C33.36859526 132.62201444 33.31323189 140.29146757 33.2578125 147.9609375 C33.15902293 161.64056789 33.08046928 175.32022234 33 189 C2.97 189 -27.06 189 -58 189 C-58 134.55 -58 80.1 -58 24 C-49.585 23.505 -49.585 23.505 -41 23 C-24.70975813 19.791316 -12.44793755 13.95042336 -1 2 C-0.67 1.34 -0.34 0.68 0 0 Z " fill="#051421" transform="translate(413,455)"/>
<path d="M0 0 C2.47939821 2.18986322 4.45779991 4.4038126 6.375 7.09765625 C6.375 7.75765625 6.375 8.41765625 6.375 9.09765625 C7.49003906 8.80117187 8.60507812 8.5046875 9.75390625 8.19921875 C26.11788202 4.14487125 42.80021323 3.80049828 59.5625 3.78515625 C60.44582001 3.78175232 61.32914001 3.77834839 62.23922729 3.77484131 C85.80461349 3.72288036 107.57878198 7.30487341 125.375 24.09765625 C137.49834688 38.05716052 141.57125453 57.0015877 140.375 75.09765625 C139.49923217 87.33060374 136.21382729 98.51420419 132.375 110.09765625 C132.1589209 110.76845215 131.9428418 111.43924805 131.72021484 112.13037109 C124.40499081 134.56411216 112.02023844 155.3206845 99.375 175.09765625 C98.96910645 175.73364746 98.56321289 176.36963867 98.14501953 177.02490234 C90.807159 188.44193569 82.79938798 199.4616151 74.375 210.09765625 C73.24933904 211.55547946 72.12435469 213.01382533 71 214.47265625 C60.73021838 227.65069461 49.81162353 240.29991014 38.5703125 252.65625 C36.73835432 254.69357004 34.93426386 256.74958467 33.13647461 258.81689453 C20.33275638 273.45085235 6.50446605 287.12730671 -7.25219727 300.85522461 C-10.03118225 303.62845642 -12.80557309 306.4062346 -15.57871151 309.18531132 C-17.74835248 311.35858471 -19.92039244 313.52944797 -22.09314156 315.69961357 C-23.1171832 316.7229963 -24.14050539 317.74709956 -25.16303825 318.77198982 C-30.81394164 324.43308825 -36.53858817 329.90784277 -42.625 335.09765625 C-44.23268373 336.55211142 -45.83739715 338.0098652 -47.4375 339.47265625 C-51.72838595 343.34555635 -56.14969215 347.01579602 -60.64453125 350.6484375 C-63.39429437 352.90807246 -66.09031942 355.21575408 -68.77758789 357.54858398 C-87.84618794 374.09765625 -87.84618794 374.09765625 -90.625 374.09765625 C-91.1918084 370.61983185 -91.35222207 367.56086066 -90.625 364.09765625 C-88.07968589 361.1070626 -84.90384849 359.21810916 -81.625 357.09765625 C-80.066927 355.91055301 -78.52554382 354.70128215 -77 353.47265625 C-76.16855469 352.80492187 -75.33710937 352.1371875 -74.48046875 351.44921875 C-65.11018468 343.73251422 -56.02273862 335.68353815 -47.15673828 327.39379883 C-44.84005163 325.22931039 -42.51724594 323.07172524 -40.18945312 320.91918945 C-29.94724176 311.41727067 -20.00606303 301.6335792 -10.13989258 291.74291992 C-7.53777179 289.1353765 -4.93026247 286.53330561 -2.32226562 283.93164062 C-0.64030383 282.2490189 1.04134821 280.56608747 2.72265625 278.8828125 C3.87278954 277.73571556 3.87278954 277.73571556 5.04615784 276.56544495 C9.12940916 272.46452906 13.0503536 268.2843634 16.80613708 263.88059998 C18.42637663 262.03926897 20.12416109 260.31457259 21.875 258.59765625 C28.55627657 252.00506919 34.45286591 244.67544858 40.49609375 237.50390625 C42.33137488 235.32747875 44.1768909 233.1607352 46.03515625 231.00390625 C83.95074944 186.87884623 134.03271992 123.66808868 130.5390625 62.10693359 C129.37885639 47.8978617 123.96464313 35.76070561 113.375 26.09765625 C110.19388879 23.73869033 106.91191646 21.87128541 103.375 20.09765625 C102.49328125 19.64519531 101.6115625 19.19273437 100.703125 18.7265625 C86.49591301 12.11353703 70.72968009 11.61401734 55.32397461 11.76147461 C52.6785657 11.7852365 50.03416209 11.78198055 47.38867188 11.77539062 C38.33028379 11.79151644 29.5726264 12.2207959 20.62573242 13.67114258 C17.17456549 14.12395434 13.85175841 14.16675644 10.375 14.09765625 C10.5915625 14.66871094 10.808125 15.23976562 11.03125 15.828125 C14.80922332 26.82972323 14.45149489 36.45793705 9.85546875 47.15625 C4.77975906 57.2407075 -2.69189753 64.47566012 -13.328125 68.37109375 C-23.78792222 71.67980512 -35.02817146 71.45700441 -44.9453125 66.6328125 C-55.26191094 60.72257462 -62.822481 52.32710087 -66.19140625 40.671875 C-68.31215431 28.08112751 -66.86013575 17.32798256 -59.5625 6.91015625 C-53.10221157 -1.26237123 -45.0373686 -7.0492516 -34.875 -9.58984375 C-21.12141187 -10.91230415 -11.16765416 -8.35912209 0 0 Z " fill="#283C50" transform="translate(785.625,204.90234375)"/>
<path d="M0 0 C27.72 0 55.44 0 84 0 C84 33 84 66 84 100 C56.28 100 28.56 100 0 100 C0 67 0 34 0 0 Z " fill="#051421" transform="translate(470,544)"/>
<path d="M0 0 C0.33 0.99 0.66 1.98 1 3 C0.50628906 3.48210938 0.01257813 3.96421875 -0.49609375 4.4609375 C-1.45708984 5.40839844 -1.45708984 5.40839844 -2.4375 6.375 C-3.07558594 7.00148438 -3.71367187 7.62796875 -4.37109375 8.2734375 C-6.07882176 9.91723061 -6.07882176 9.91723061 -7 12 C-7.99 11.67 -8.98 11.34 -10 11 C-6.7 7.37 -3.4 3.74 0 0 Z M-11 12 C-10.01 13.485 -10.01 13.485 -9 15 C-9.99 15.66 -10.98 16.32 -12 17 C-12 17.66 -12 18.32 -12 19 C-11.01 19 -10.02 19 -9 19 C-10.59801324 22.86262628 -13.22189715 25.58165628 -16.0625 28.5625 C-21.30584492 34.17707032 -26.18706326 40.01091151 -31 46 C-31.99619846 47.21712685 -32.99367264 48.43321027 -33.9921875 49.6484375 C-37.35427799 53.74475411 -40.68273541 57.86733478 -44 62 C-44.5048291 62.62519531 -45.0096582 63.25039063 -45.52978516 63.89453125 C-62.28189079 84.75916626 -76.91986971 107.68925415 -90 131 C-90.41781738 131.73927734 -90.83563477 132.47855469 -91.26611328 133.24023438 C-108.85664736 164.59139264 -124.11274317 201.55570816 -116 238 C-110.42351947 255.40282791 -99.16197431 267.66363176 -83 276 C-74.62210276 279.57593175 -65.91288045 282.150375 -57 284 C-55.52466797 284.309375 -55.52466797 284.309375 -54.01953125 284.625 C-26.45566027 289.45958882 5.75396206 285.90877931 33 280 C33.99733154 279.79141357 34.99466309 279.58282715 36.0222168 279.36791992 C44.82710849 277.51461677 53.58110299 275.48500588 62.3125 273.3125 C63.00154419 273.14114532 63.69058838 272.96979065 64.4005127 272.79324341 C77.79932722 269.44161455 90.92086644 265.44205784 104 261 C105.60929268 260.46589773 107.21866348 259.93203076 108.828125 259.3984375 C134.06937099 250.9072644 158.63260865 240.54696061 182.82177734 229.44873047 C185.73263319 228.12187392 188.65297359 226.82122629 191.58203125 225.53515625 C203.90832005 220.11406659 215.80053278 214.04406279 227.60571289 207.57128906 C234.12862372 203.99636043 240.70449809 200.53959161 247.3125 197.125 C255.29926345 192.97297665 263.20170324 188.74713171 270.96533203 184.18896484 C273.41692559 182.75636818 275.87847101 181.34150911 278.33984375 179.92578125 C288.78427884 173.90044375 299.14292383 167.75507764 309.375 161.375 C310.37096191 160.75608887 311.36692383 160.13717773 312.39306641 159.49951172 C317.05042941 156.57933973 321.62424636 153.59910126 326.0859375 150.38671875 C339.84383586 140.53507075 339.84383586 140.53507075 349.0078125 141.578125 C349.66523437 141.71734375 350.32265625 141.8565625 351 142 C328.04579202 165.9504123 292.23308802 181.57639659 263.39453125 197.45703125 C257.49169168 200.71257964 251.64842265 204.0639602 245.8125 207.4375 C237.36237635 212.29987057 228.79899399 216.80429442 220 221 C219.3095459 221.3295166 218.6190918 221.6590332 217.90771484 221.99853516 C213.61820026 224.03934858 209.31751494 226.05539891 205.01123047 228.06054688 C203.16192898 228.92436238 201.31706844 229.79766856 199.47265625 230.671875 C181.69259623 239.07190335 163.6894635 246.89828643 145.32421875 253.9296875 C141.67274706 255.32983292 138.06932569 256.81255289 134.47265625 258.34765625 C127.1388921 261.42190794 119.66546665 264.07612466 112.16552734 266.71166992 C109.76507549 267.5571899 107.36888318 268.41407599 104.97265625 269.27148438 C96.26875006 272.35566495 87.59611564 275.00441665 78.61035156 277.13012695 C75.42666127 277.89720083 72.29636728 278.74911306 69.15625 279.67578125 C19.82134607 294.07598156 -43.2277255 305.24155803 -91.0625 281.1875 C-107.21111314 271.49833212 -118.27065388 257.44333955 -123.421875 239.32421875 C-127.79966425 221.72432278 -126.20093721 201.28399492 -121 184 C-120.75282227 183.154375 -120.50564453 182.30875 -120.25097656 181.4375 C-113.38732565 158.54202446 -102.32441521 136.43807132 -90 116 C-89.53303711 115.21818359 -89.06607422 114.43636719 -88.58496094 113.63085938 C-72.89158918 87.45187165 -54.84779805 63.06887705 -35.08569336 39.83740234 C-32.17378256 36.40941167 -29.32225513 32.9401202 -26.5 29.4375 C-21.58574607 23.3905596 -16.31525883 17.69279123 -11 12 Z " fill="#182E42" transform="translate(225,527)"/>
<path d="M0 0 C1.32484406 -0.0051059 1.32484406 -0.0051059 2.67645264 -0.01031494 C26.24193937 -0.06227551 48.01619334 3.51963352 65.8125 20.3125 C77.93584688 34.27200427 82.00875453 53.21643145 80.8125 71.3125 C79.93673217 83.54544749 76.65132729 94.72904794 72.8125 106.3125 C72.5964209 106.9832959 72.3803418 107.6540918 72.15771484 108.34521484 C64.84249081 130.77895591 52.45773844 151.53552825 39.8125 171.3125 C39.40660645 171.94849121 39.00071289 172.58448242 38.58251953 173.23974609 C31.244659 184.65677944 23.23688798 195.67645885 14.8125 206.3125 C13.68683904 207.77032321 12.56185469 209.22866908 11.4375 210.6875 C1.16771838 223.86553836 -9.75087647 236.51475389 -20.9921875 248.87109375 C-22.82414568 250.90841379 -24.62823614 252.96442842 -26.42602539 255.03173828 C-39.22974362 269.6656961 -53.05803395 283.34215046 -66.81469727 297.07006836 C-69.59368225 299.84330017 -72.36807309 302.62107835 -75.14121151 305.40015507 C-77.31085248 307.57342846 -79.48289244 309.74429172 -81.65564156 311.91445732 C-82.6796832 312.93784005 -83.70300539 313.96194331 -84.72553825 314.98683357 C-90.37644164 320.647932 -96.10108817 326.12268652 -102.1875 331.3125 C-103.79518373 332.76695517 -105.39989715 334.22470895 -107 335.6875 C-111.29088595 339.5604001 -115.71219215 343.23063977 -120.20703125 346.86328125 C-122.95679437 349.12291621 -125.65281942 351.43059783 -128.34008789 353.76342773 C-147.40868794 370.3125 -147.40868794 370.3125 -150.1875 370.3125 C-150.7543084 366.8346756 -150.91472207 363.77570441 -150.1875 360.3125 C-147.64218589 357.32190635 -144.46634849 355.43295291 -141.1875 353.3125 C-139.629427 352.12539676 -138.08804382 350.9161259 -136.5625 349.6875 C-135.73105469 349.01976562 -134.89960937 348.35203125 -134.04296875 347.6640625 C-124.67268468 339.94735797 -115.58523862 331.8983819 -106.71923828 323.60864258 C-104.40255163 321.44415414 -102.07974594 319.28656899 -99.75195312 317.1340332 C-89.50974176 307.63211442 -79.56856303 297.84842295 -69.70239258 287.95776367 C-67.10027179 285.35022025 -64.49276247 282.74814936 -61.88476562 280.14648438 C-60.20280383 278.46386265 -58.52115179 276.78093122 -56.83984375 275.09765625 C-55.68971046 273.95055931 -55.68971046 273.95055931 -54.51634216 272.7802887 C-50.43309084 268.67937281 -46.5121464 264.49920715 -42.75636292 260.09544373 C-41.13612337 258.25411272 -39.43833891 256.52941634 -37.6875 254.8125 C-31.00622343 248.21991294 -25.10963409 240.89029233 -19.06640625 233.71875 C-17.23112512 231.5423225 -15.3856091 229.37557895 -13.52734375 227.21875 C24.38824944 183.09368998 74.47021992 119.88293243 70.9765625 58.32177734 C69.81635639 44.11270545 64.40214313 31.97554936 53.8125 22.3125 C50.63138879 19.95353408 47.34941646 18.08612916 43.8125 16.3125 C42.93078125 15.86003906 42.0490625 15.40757812 41.140625 14.94140625 C26.93341301 8.32838078 11.16718009 7.82886109 -4.23852539 7.97631836 C-6.8839343 8.00008025 -9.52833791 7.9968243 -12.17382812 7.99023438 C-21.2952267 8.00636314 -30.1234397 8.45414949 -39.13818359 9.8737793 C-42.88355224 10.41264459 -46.41356067 10.46653834 -50.1875 10.3125 C-51.1775 7.8375 -51.1775 7.8375 -52.1875 5.3125 C-35.32089391 0.05596965 -17.5055612 0.01602823 0 0 Z " fill="#182E42" transform="translate(845.1875,208.6875)"/>
<path d="M0 0 C1.32 0.33 2.64 0.66 4 1 C4 38.62 4 76.24 4 115 C28.35727945 115.63330998 28.35727945 115.63330998 44 104 C46.11169921 102.25827682 48.30327909 100.63240484 50.5 99 C51.58873815 98.16471007 52.67598473 97.32747233 53.76171875 96.48828125 C55.8848777 94.85464079 58.01317163 93.22847924 60.14453125 91.60546875 C67.05537526 86.33073084 73.83873687 80.92644918 80.5324707 75.37768555 C83.89170823 72.61481751 87.17562317 70.11076183 91 68 C91.9118811 71.59296742 91.97311783 74.40769437 91 78 C87.26597858 82.4062784 82.64121132 85.6038386 78 89 C76.3782635 90.22398992 74.75856696 91.4506861 73.140625 92.6796875 C69.72465865 95.26633277 66.29457288 97.83228829 62.8515625 100.3828125 C57.60557251 104.27566199 52.46043003 108.28899169 47.3359375 112.33984375 C45 114 45 114 43 114 C43 114.66 43 115.32 43 116 C29.70338389 120.43220537 15.01125885 117.64073695 1 118 C0.67 79.06 0.34 40.12 0 0 Z " fill="#192F42" transform="translate(576,526)"/>
<path d="M0 0 C0 2.31 0 4.62 0 7 C-0.79768799 7.1952124 -1.59537598 7.3904248 -2.41723633 7.59155273 C-16.98971154 11.18492279 -31.44702955 14.92179308 -45.6875 19.6875 C-47.28525269 20.22105103 -47.28525269 20.22105103 -48.9152832 20.76538086 C-60.65437382 24.77960746 -71.97172368 29.81144525 -83.33007812 34.78125 C-88.80723246 37.15019073 -94.30416879 39.21826712 -100 41 C-100.66 39.02 -101.32 37.04 -102 35 C-80.08707885 24.67091031 -57.42848982 14.37147321 -34 8 C-32.46690186 7.57678467 -32.46690186 7.57678467 -30.90283203 7.14501953 C-4.96783794 0 -4.96783794 0 0 0 Z " fill="#0F2335" transform="translate(719,231)"/>
<path d="M0 0 C6.6 0 13.2 0 20 0 C20 0.33 20 0.66 20 1 C15 2 15 2 3 2 C2.67 55.13 2.34 108.26 2 163 C31.04 163 60.08 163 90 163 C90 125.05 90 87.1 90 48 C90.33 48 90.66 48 91 48 C91 86.61 91 125.22 91 165 C60.97 165 30.94 165 0 165 C0 110.55 0 56.1 0 0 Z " fill="#030508" transform="translate(355,479)"/>
<path d="M0 0 C0.33 0.99 0.66 1.98 1 3 C0.50628906 3.48210938 0.01257813 3.96421875 -0.49609375 4.4609375 C-1.45708984 5.40839844 -1.45708984 5.40839844 -2.4375 6.375 C-3.07558594 7.00148438 -3.71367187 7.62796875 -4.37109375 8.2734375 C-6.07882176 9.91723061 -6.07882176 9.91723061 -7 12 C-7.99 11.67 -8.98 11.34 -10 11 C-6.7 7.37 -3.4 3.74 0 0 Z M-11 12 C-10.34 12.99 -9.68 13.98 -9 15 C-9.99 15.66 -10.98 16.32 -12 17 C-12 17.66 -12 18.32 -12 19 C-11.01 19 -10.02 19 -9 19 C-10.59801324 22.86262628 -13.22189715 25.58165628 -16.0625 28.5625 C-21.30584492 34.17707032 -26.18706326 40.01091151 -31 46 C-31.99619846 47.21712685 -32.99367264 48.43321027 -33.9921875 49.6484375 C-39.77646266 56.70005385 -45.45924899 63.81751455 -51 71.0625 C-51.52754883 71.75230957 -52.05509766 72.44211914 -52.59863281 73.15283203 C-55.02205968 76.33987869 -57.40048142 79.54753419 -59.70703125 82.8203125 C-61.91913051 85.88785731 -64.25789747 88.40611923 -67 91 C-67.99 91.99 -67.99 91.99 -69 93 C-70.11328125 91.28125 -70.11328125 91.28125 -71 89 C-68.76807294 80.73138431 -62.16083973 73.60126549 -57 67 C-56.19202022 65.93640479 -55.38603922 64.8712883 -54.58203125 63.8046875 C-49.48254432 57.06004048 -44.15750034 50.55220072 -38.66015625 44.12890625 C-36.18220852 41.22948417 -33.77340982 38.27818589 -31.375 35.3125 C-27.76274943 30.87459216 -24.00407679 26.60190773 -20.15234375 22.37109375 C-17.05278733 18.95651889 -14.02422215 15.48125893 -11 12 Z " fill="#12273A" transform="translate(225,527)"/>
<path d="M0 0 C98.01 0 196.02 0 297 0 C297 0.66 297 1.32 297 2 C199.32 2.33 101.64 2.66 1 3 C0.67 3.66 0.34 4.32 0 5 C-0.66 4.67 -1.32 4.34 -2 4 C-1.34 2.68 -0.68 1.36 0 0 Z " fill="#010104" transform="translate(363,320)"/>
<path d="M0 0 C27.72 0 55.44 0 84 0 C84 33 84 66 84 100 C57.93 99.67 31.86 99.34 5 99 C5 98.67 5 98.34 5 98 C30.41 98 55.82 98 82 98 C82 66.32 82 34.64 82 2 C55.6 2 29.2 2 2 2 C2.0394585 19.32106086 2.0394585 19.32106086 2.09008789 36.64208984 C2.09301159 38.83170523 2.09555908 41.02132117 2.09765625 43.2109375 C2.10277222 44.32573486 2.10788818 45.44053223 2.11315918 46.58911133 C2.11388027 53.12364654 1.80364293 59.51356331 1 66 C0.67 66 0.34 66 0 66 C0 44.22 0 22.44 0 0 Z " fill="#000105" transform="translate(470,544)"/>
<path d="M0 0 C1.27875 0.165 2.5575 0.33 3.875 0.5 C11.89172666 1.15442667 19.9566064 1 28 1 C28 55.78 28 110.56 28 167 C-1.7 167 -31.4 167 -62 167 C-62 166.67 -62 166.34 -62 166 C-60.94177536 165.97716446 -59.88355072 165.95432892 -58.79325867 165.93080139 C-48.83125 165.7152239 -38.86935971 165.49476843 -28.90756512 165.26950932 C-23.7858393 165.1538529 -18.66408706 165.03992879 -13.54223633 164.92993164 C-8.60142807 164.82375933 -3.6607397 164.71307844 1.27989769 164.59924126 C3.16694752 164.55656027 5.05403511 164.5155172 6.94115639 164.4761219 C9.57978548 164.42076118 12.2182215 164.35963244 14.85668945 164.29711914 C15.6407164 164.28201294 16.42474335 164.26690674 17.23252869 164.25134277 C20.39789453 164.17124143 22.97621008 164.00792997 26 163 C26.07995588 128.94848074 25.86627606 94.90364285 25.53643799 60.8538208 C25.47449193 54.40842169 25.41511018 47.9629989 25.35546875 41.51757812 C25.23939205 29.01169529 25.12063215 16.50583967 25 4 C24.18033752 4.00761353 23.36067505 4.01522705 22.51617432 4.02307129 C20.89990143 4.03195374 20.89990143 4.03195374 19.25097656 4.04101562 C18.18381409 4.04862915 17.11665161 4.05624268 16.01715088 4.06408691 C12.34985866 3.98619043 9.29438303 3.42462166 5.75 2.5 C4.65171875 2.2215625 3.5534375 1.943125 2.421875 1.65625 C1.62265625 1.4396875 0.8234375 1.223125 0 1 C0 0.67 0 0.34 0 0 Z " fill="#05090E" transform="translate(641,477)"/>
<path d="M0 0 C1.32 0.33 2.64 0.66 4 1 C4 38.62 4 76.24 4 115 C12.25 115 20.5 115 29 115 C32.63 115.33 36.26 115.66 40 116 C40 116.33 40 116.66 40 117 C27.13 117.33 14.26 117.66 1 118 C0.67 79.06 0.34 40.12 0 0 Z " fill="#1A232B" transform="translate(576,526)"/>
<path d="M0 0 C0.99 0.33 1.98 0.66 3 1 C2.34 1 1.68 1 1 1 C1.01474869 2.23805893 1.02949738 3.47611786 1.04469299 4.75169373 C1.18270347 16.39179909 1.31544511 28.03195405 1.4429636 39.67217922 C1.50870074 45.65721981 1.57632567 51.64222691 1.64819336 57.62719727 C1.71741853 63.39778997 1.7817784 69.1684179 1.84269524 74.93910408 C1.86686092 77.14604746 1.89281092 79.35297202 1.92053413 81.55987358 C1.95892134 84.63941372 1.99109155 87.7189584 2.02172852 90.79858398 C2.04114754 92.18177574 2.04114754 92.18177574 2.06095886 93.59291077 C2.07897755 95.72862783 2.04530314 97.86468745 2 100 C1.505 100.495 1.505 100.495 1 101 C0.90482197 103.76938966 0.87445735 106.51377159 0.88647461 109.28344727 C0.88632858 110.15166107 0.88618256 111.01987488 0.8860321 111.91439819 C0.88673154 114.79842586 0.89452537 117.6823898 0.90234375 120.56640625 C0.90420782 122.56037867 0.90563177 124.55435155 0.90663147 126.54832458 C0.91045752 131.80745702 0.92028855 137.06656203 0.93133545 142.32568359 C0.9415477 147.68782175 0.94612869 153.04996431 0.95117188 158.41210938 C0.96191074 168.94141833 0.9789882 179.47070689 1 190 C0.34 190.33 -0.32 190.66 -1 191 C-1.02332606 166.24434931 -1.04097773 141.48870026 -1.05181217 116.73304081 C-1.05697575 105.23942257 -1.06401963 93.74581114 -1.07543945 82.25219727 C-1.08538439 72.23824813 -1.09185297 62.22430392 -1.09408849 52.21034998 C-1.09539593 46.90454557 -1.09848381 41.59875529 -1.10573006 36.2929554 C-1.11248728 31.30509229 -1.11461757 26.31724919 -1.11310768 21.32938194 C-1.11338414 19.49309811 -1.11539102 17.65681365 -1.11920547 15.82053375 C-1.12413808 13.32479384 -1.1229999 10.82913076 -1.12025452 8.33338928 C-1.12316736 7.59702195 -1.1260802 6.86065461 -1.12908131 6.10197312 C-1.11412121 1.11412121 -1.11412121 1.11412121 0 0 Z " fill="#000104" transform="translate(694,469)"/>
<path d="M0 0 C0.96879089 -0.00419449 1.93758179 -0.00838898 2.93572998 -0.01271057 C3.99197067 -0.00709106 5.04821136 -0.00147156 6.13645935 0.00431824 C7.81259811 0.00147072 7.81259811 0.00147072 9.52259827 -0.00143433 C13.22004692 -0.00514219 16.91729961 0.00556203 20.61473083 0.01676941 C23.1801552 0.01796126 25.74558001 0.01841436 28.31100464 0.01815796 C33.68856231 0.01972282 39.06604903 0.02777031 44.44358826 0.04142761 C50.66136202 0.05716046 56.87907396 0.0624254 63.09686619 0.06169206 C69.07909274 0.06108178 75.06129407 0.06629493 81.04351616 0.07448387 C83.58929765 0.07767211 86.13508096 0.07963831 88.68086433 0.08037758 C92.23380277 0.082539 95.7866627 0.09127881 99.33958435 0.10197449 C100.39784927 0.1015213 101.4561142 0.10106812 102.54644775 0.1006012 C103.51241882 0.10486618 104.47838989 0.10913116 105.47363281 0.11352539 C106.3137217 0.11520123 107.1538106 0.11687708 108.01935673 0.11860371 C110.17332458 0.24723816 110.17332458 0.24723816 113.17332458 1.24723816 C112.84332458 2.23723816 112.51332458 3.22723816 112.17332458 4.24723816 C111.56887135 4.24024084 110.96441811 4.23324352 110.3416481 4.22603416 C95.63611539 4.0564999 80.9304914 3.89821561 66.22470474 3.75246239 C59.11310508 3.68170581 52.00158348 3.60713769 44.89012146 3.52360535 C38.03025842 3.44303902 31.17035309 3.37308307 24.31031036 3.30966568 C21.68995674 3.28369434 19.06963619 3.25413647 16.44936371 3.22097397 C12.78608372 3.17521698 9.12289473 3.14208544 5.4594574 3.11198425 C4.37045135 3.09544296 3.28144531 3.07890167 2.15943909 3.06185913 C1.16107025 3.05619431 0.16270142 3.05052948 -0.86592102 3.04469299 C-1.73240643 3.03547506 -2.59889183 3.02625713 -3.49163437 3.01675987 C-6.02361097 3.26667652 -7.64443942 3.97228489 -9.82667542 5.24723816 C-8.82667542 2.24723816 -8.82667542 2.24723816 -7.06584263 1.07519054 C-4.55538241 0.14692511 -2.67329146 -0.00173276 0 0 Z " fill="#EFF0F1" transform="translate(458.82667541503906,519.7527618408203)"/>
<path d="M0 0 C0 2.31 0 4.62 0 7 C-0.89195068 7.2266333 -1.78390137 7.4532666 -2.70288086 7.68676758 C-6.0526854 8.53959925 -9.40169981 9.39541306 -12.75024414 10.25317383 C-14.19200174 10.62186081 -15.63405312 10.98940112 -17.07641602 11.35571289 C-19.16503701 11.88637465 -21.252715 12.42053171 -23.33984375 12.95703125 C-24.01493988 13.13017853 -24.69003601 13.30332581 -25.3855896 13.48171997 C-29.07411195 14.4439506 -32.66820359 15.53295423 -36.25390625 16.82421875 C-39.88562086 17.96409998 -40.63980213 18.09126293 -44 17 C-42.35 16.67 -40.7 16.34 -39 16 C-39.66 14.35 -40.32 12.7 -41 11 C-33.06313324 7.48890824 -24.98217381 5.29246122 -16.5625 3.25 C-14.66467773 2.77626953 -14.66467773 2.77626953 -12.72851562 2.29296875 C-3.42263596 0 -3.42263596 0 0 0 Z M-38 11 C-38 12.32 -38 13.64 -38 15 C-37.01 13.68 -36.02 12.36 -35 11 C-35.99 11 -36.98 11 -38 11 Z " fill="#142A3E" transform="translate(719,231)"/>
<path d="M0 0 C2.05385904 2.05385904 2.53187833 3.23621021 3.5625 5.875 C5.72593295 10.43395833 8.57377117 11.68566921 13.171875 13.40625 C13.77515625 13.6021875 14.3784375 13.798125 15 14 C12.50160322 15.26841683 10.00715617 16.43545782 7.4375 17.5625 C4.15049313 19.40350599 3.2320806 21.20227219 2.0625 24.75 C1.68270631 26.16001249 1.31967691 27.57515434 1 29 C0.67 29 0.34 29 0 29 C-0.17015625 28.38511719 -0.3403125 27.77023438 -0.515625 27.13671875 C-1.93038695 22.22458123 -1.93038695 22.22458123 -4.75 18.0625 C-7.74792024 16.64681544 -10.78934766 15.80266308 -14 15 C-13 13 -13 13 -11.0390625 12.32421875 C-10.24242187 12.11410156 -9.44578125 11.90398437 -8.625 11.6875 C-5.38919719 10.66539721 -4.23655772 10.28091229 -2 7.625 C-1.02824253 5.07413665 -0.38575918 2.70031429 0 0 Z " fill="#273E53" transform="translate(191,206)"/>
<path d="M0 0 C0.66 0 1.32 0 2 0 C2.37125 1.2375 2.7425 2.475 3.125 3.75 C4.74642725 8.12013248 6.86975444 9.76278366 11 12 C11.99 12.66 12.98 13.32 14 14 C13.45730469 14.23074219 12.91460938 14.46148438 12.35546875 14.69921875 C7.83514147 16.75983641 4.98744226 18.2067569 3 23 C2.29329272 25.69254991 2.29329272 25.69254991 2 28 C1.34 27.67 0.68 27.34 0 27 C-0.33 25.7625 -0.66 24.525 -1 23.25 C-2.02608742 20.23145712 -2.73930811 19.17688303 -5.41796875 17.359375 C-7.91506921 16.13371779 -10.40912842 15.01107184 -13 14 C-10 12 -10 12 -7 10.6875 C-2.99229103 8.4331637 -1.60359682 6.03028023 -0.3125 1.6875 C-0.209375 1.130625 -0.10625 0.57375 0 0 Z " fill="#23394D" transform="translate(838,558)"/>
<path d="M0 0 C0.33 0 0.66 0 1 0 C1 13.86 1 27.72 1 42 C40.6 42.495 40.6 42.495 81 43 C81 43.33 81 43.66 81 44 C53.94 44 26.88 44 -1 44 C-1 10 -1 10 0 0 Z " fill="#0B1119" transform="translate(471,600)"/>
<path d="M0 0 C-0.33 0.99 -0.66 1.98 -1 3 C-58.915 2.505 -58.915 2.505 -118 2 C-118 1.67 -118 1.34 -118 1 C-102.91002046 0.86951157 -87.82004007 0.73912131 -72.73005867 0.60884857 C-65.7238473 0.54836122 -58.71763622 0.48784149 -51.71142578 0.42724609 C-44.95524029 0.3688132 -38.19905403 0.31046982 -31.44286728 0.25218201 C-28.85997364 0.22988373 -26.27708027 0.207555 -23.69418716 0.18519592 C-20.08795489 0.15398331 -16.4817217 0.12287707 -12.87548828 0.09179688 C-11.25924561 0.07777077 -11.25924561 0.07777077 -9.61035156 0.0634613 C-8.63156036 0.05504715 -7.65276917 0.046633 -6.64431763 0.03796387 C-5.36394717 0.02690235 -5.36394717 0.02690235 -4.05771065 0.01561737 C-2.70516937 0.00535201 -1.35258023 0 0 0 Z " fill="#DCDDDE" transform="translate(572,521)"/>
<path d="M0 0 C0.03738281 1.0621875 0.07476562 2.124375 0.11328125 3.21875 C0.43788287 10.66435465 0.72756132 17.17056275 4 24 C3.01 24.33 2.02 24.66 1 25 C-1.13412535 21.79881197 -1.4316893 19.73461318 -2 16 C-2.33 15.67 -2.66 15.34 -3 15 C-3.07271741 12.64686445 -3.08370868 10.29166332 -3.0625 7.9375 C-3.05347656 6.64714844 -3.04445313 5.35679687 -3.03515625 4.02734375 C-3.02355469 3.02832031 -3.01195312 2.02929688 -3 1 C-1 0 -1 0 0 0 Z " fill="#E6E7E8" transform="translate(326,414)"/>
<path d="M0 0 C0 0.66 0 1.32 0 2 C-4.70461323 3.86132673 -8.8757696 4.2509496 -13.875 4.125 C-14.56335938 4.11597656 -15.25171875 4.10695313 -15.9609375 4.09765625 C-17.64077838 4.07432513 -19.32043746 4.03846326 -21 4 C-21 3.34 -21 2.68 -21 2 C-21.99 1.67 -22.98 1.34 -24 1 C-22.74703125 0.93941406 -21.4940625 0.87882812 -20.203125 0.81640625 C-18.55207276 0.73197744 -16.90103165 0.64733061 -15.25 0.5625 C-14.425 0.52318359 -13.6 0.48386719 -12.75 0.44335938 C-11.95078125 0.40146484 -11.1515625 0.35957031 -10.328125 0.31640625 C-9.5949707 0.27974854 -8.86181641 0.24309082 -8.10644531 0.20532227 C-5.97165223 0.0564432 -5.97165223 0.0564432 -3.85449219 -0.58227539 C-2 -1 -2 -1 0 0 Z " fill="#DEE0E2" transform="translate(576,454)"/>
<path d="M0 0 C-4.63758169 3.09172113 -9.89003033 4.10272393 -15.23193359 5.56884766 C-17.23194702 6.12002484 -19.22722687 6.68638976 -21.22265625 7.25390625 C-22.50755238 7.61031411 -23.79270136 7.96581189 -25.078125 8.3203125 C-26.23731445 8.64273926 -27.39650391 8.96516602 -28.59082031 9.29736328 C-32.15137015 10.0311976 -35.37493677 10.12406695 -39 10 C-38.360625 9.896875 -37.72125 9.79375 -37.0625 9.6875 C-36.0415625 9.3471875 -36.0415625 9.3471875 -35 9 C-34.67 8.01 -34.34 7.02 -34 6 C-33.34 6.33 -32.68 6.66 -32 7 C-29.85077977 6.70322482 -29.85077977 6.70322482 -27.421875 6.07421875 C-26.50792969 5.85443359 -25.59398437 5.63464844 -24.65234375 5.40820312 C-23.69457031 5.17037109 -22.73679687 4.93253906 -21.75 4.6875 C-20.80769531 4.46126953 -19.86539062 4.23503906 -18.89453125 4.00195312 C-1.97180781 -0.11598869 -1.97180781 -0.11598869 0 0 Z " fill="#1C3347" transform="translate(310,801)"/>
<path d="M0 0 C2.31 0 4.62 0 7 0 C7 0.33 7 0.66 7 1 C5.02 1 3.04 1 1 1 C1.33 2.32 1.66 3.64 2 5 C3.65 5 5.3 5 7 5 C2.39976491 9.60023509 -7.3042712 8.04518324 -13.56201172 8.06591797 C-16.70833039 8.06100294 -19.85388003 8.03593284 -23 8 C-23 7.67 -23 7.34 -23 7 C-12.605 6.505 -12.605 6.505 -2 6 C-1.34 4.02 -0.68 2.04 0 0 Z " fill="#1C3348" transform="translate(229,812)"/>
<path d="M0 0 C1.33106622 0.34227417 2.66400079 0.67751743 4 1 C4.33 2.32 4.66 3.64 5 5 C3.37509046 5.02698189 1.75005367 5.04638757 0.125 5.0625 C-1.23238281 5.07990234 -1.23238281 5.07990234 -2.6171875 5.09765625 C-5 5 -5 5 -7 4 C-7.625 1.9375 -7.625 1.9375 -8 0 C-4.71303767 -0.79953138 -3.28976808 -1.09658936 0 0 Z " fill="#162C3F" transform="translate(175,813)"/>
<path d="M0 0 C0.66 0.33 1.32 0.66 2 1 C0.35 2.65 -1.3 4.3 -3 6 C-2.21625 6.598125 -1.4325 7.19625 -0.625 7.8125 C2 10 2 10 4 13 C4.66 12.67 5.32 12.34 6 12 C5.67 14.64 5.34 17.28 5 20 C4.34 19.67 3.68 19.34 3 19 C2.67 17.7625 2.34 16.525 2 15.25 C0.97391258 12.23145712 0.26069189 11.17688303 -2.41796875 9.359375 C-4.91506921 8.13371779 -7.40912842 7.01107184 -10 6 C-7.08616689 4.05744459 -4.12736438 2.56368219 -1 1 C-0.67 0.67 -0.34 0.34 0 0 Z " fill="#2A4358" transform="translate(835,566)"/>
<path d="M0 0 C1.9490625 0.2475 1.9490625 0.2475 3.9375 0.5 C11.60503519 1.28556277 19.30287867 1.08036438 27 1 C27 1.33 27 1.66 27 2 C24.36 2 21.72 2 19 2 C19 2.66 19 3.32 19 4 C12.34949576 4.24991456 6.43013467 3.73955334 0 2 C0 1.34 0 0.68 0 0 Z " fill="#E6E6E8" transform="translate(642,475)"/>
<path d="M0 0 C0.66 0 1.32 0 2 0 C2.37125 1.2375 2.7425 2.475 3.125 3.75 C4.74642725 8.12013248 6.86975444 9.76278366 11 12 C11.99 12.66 12.98 13.32 14 14 C13.45730469 14.26554688 12.91460938 14.53109375 12.35546875 14.8046875 C11.64003906 15.15789063 10.92460938 15.51109375 10.1875 15.875 C9.47980469 16.22304688 8.77210938 16.57109375 8.04296875 16.9296875 C5.78753582 18.0656486 5.78753582 18.0656486 3 20 C4.3024333 17.09457188 5.70886268 15.1907039 8 13 C7.43410156 12.60167969 6.86820313 12.20335937 6.28515625 11.79296875 C5.18494141 10.99826172 5.18494141 10.99826172 4.0625 10.1875 C3.33160156 9.66542969 2.60070312 9.14335938 1.84765625 8.60546875 C0 7 0 7 -1 4 C-0.5625 1.8125 -0.5625 1.8125 0 0 Z " fill="#2C445B" transform="translate(838,558)"/>
<path d="M0 0 C0.33 0 0.66 0 1 0 C1.33 13.53 1.66 27.06 2 41 C-1 40 -1 40 -3 37 C-2.01 37 -1.02 37 0 37 C0 24.79 0 12.58 0 0 Z " fill="#01060F" transform="translate(667,603)"/>
<path d="M0 0 C5.61 0 11.22 0 17 0 C17 0.99 17 1.98 17 3 C11.39 3 5.78 3 0 3 C0 2.01 0 1.02 0 0 Z " fill="#E8E9EA" transform="translate(355,476)"/>
<path d="M0 0 C0.99 0 1.98 0 3 0 C4.0712828 6.02596573 4.09945415 11.88909517 4 18 C3.01 18 2.02 18 1 18 C1.01740234 16.67935547 1.01740234 16.67935547 1.03515625 15.33203125 C1.04417969 14.17058594 1.05320312 13.00914062 1.0625 11.8125 C1.07410156 10.66394531 1.08570313 9.51539063 1.09765625 8.33203125 C1.01192832 5.40699414 0.67849023 2.83683709 0 0 Z " fill="#E5E7E9" transform="translate(718,409)"/>
<path d="M0 0 C1.1446875 0.12375 1.1446875 0.12375 2.3125 0.25 C2.3125 3.25 2.3125 3.25 0.3125 6.25 C-0.6775 6.25 -1.6675 6.25 -2.6875 6.25 C-2.6875 6.91 -2.6875 7.57 -2.6875 8.25 C-4.0075 8.58 -5.3275 8.91 -6.6875 9.25 C-6.04078163 4.59362773 -5.23074478 0.48658091 0 0 Z " fill="#162B3E" transform="translate(498.6875,710.75)"/>
<path d="M0 0 C0.33 0 0.66 0 1 0 C1 2.31 1 4.62 1 7 C2.32 7 3.64 7 5 7 C5 8.98 5 10.96 5 13 C3.68 12.34 2.36 11.68 1 11 C0.67 14.3 0.34 17.6 0 21 C-0.33 21 -0.66 21 -1 21 C-1.0269501 18.06243881 -1.04681474 15.12512445 -1.0625 12.1875 C-1.07087891 11.35412109 -1.07925781 10.52074219 -1.08789062 9.66210938 C-1.09111328 8.85966797 -1.09433594 8.05722656 -1.09765625 7.23046875 C-1.10289307 6.49207764 -1.10812988 5.75368652 -1.11352539 4.99291992 C-1 3 -1 3 0 0 Z " fill="#1C3348" transform="translate(101,727)"/>
<path d="M0 0 C0 3 0 3 -1.2421875 4.60546875 C-1.78101563 5.12753906 -2.31984375 5.64960937 -2.875 6.1875 C-3.40867187 6.71730469 -3.94234375 7.24710938 -4.4921875 7.79296875 C-6 9 -6 9 -8 9 C-8 9.66 -8 10.32 -8 11 C-9.75 12.7265625 -9.75 12.7265625 -12 14.625 C-12.7425 15.25664063 -13.485 15.88828125 -14.25 16.5390625 C-14.8275 17.02117188 -15.405 17.50328125 -16 18 C-16.66 17.67 -17.32 17.34 -18 17 C-12.18590512 11.09128152 -6.41069287 5.27101414 0 0 Z " fill="#1C3349" transform="translate(754,518)"/>
<path d="M0 0 C7 2 7 2 14 4 C14 4.99 14 5.98 14 7 C8.55432314 5.97137215 3.88182883 4.75385216 -1 2 C-0.67 1.34 -0.34 0.68 0 0 Z " fill="#141B22" transform="translate(443,448)"/>
<path d="M0 0 C1.67542976 0.28604898 3.34385343 0.61781233 5 1 C4.67 2.98 4.34 4.96 4 7 C2.35 6.67 0.7 6.34 -1 6 C-1.042721 4.33388095 -1.04063832 2.66617115 -1 1 C-0.67 0.67 -0.34 0.34 0 0 Z " fill="#3D566B" transform="translate(548,161)"/>
<path d="M0 0 C2.125 0.375 2.125 0.375 4 1 C4.625 2.875 4.625 2.875 5 5 C4.34 5.66 3.68 6.32 3 7 C0.875 6.625 0.875 6.625 -1 6 C-1.625 4.125 -1.625 4.125 -2 2 C-1.34 1.34 -0.68 0.68 0 0 Z " fill="#5F7A8E" transform="translate(244,58)"/>
<path d="M0 0 C2.125 0.375 2.125 0.375 4 1 C4.625 2.875 4.625 2.875 5 5 C4.34 5.66 3.68 6.32 3 7 C0.875 6.625 0.875 6.625 -1 6 C-1.625 4.125 -1.625 4.125 -2 2 C-1.34 1.34 -0.68 0.68 0 0 Z " fill="#5E7A8E" transform="translate(811,27)"/>
<path d="M0 0 C1.65 0.33 3.3 0.66 5 1 C5 2.65 5 4.3 5 6 C3.125 6.625 3.125 6.625 1 7 C0.34 6.34 -0.32 5.68 -1 5 C-0.625 2.375 -0.625 2.375 0 0 Z " fill="#5F7A8D" transform="translate(961,953)"/>
<path d="M0 0 C1.65 0 3.3 0 5 0 C5.33 1.65 5.66 3.3 6 5 C3.625 5.625 3.625 5.625 1 6 C0.34 5.34 -0.32 4.68 -1 4 C-0.625 1.875 -0.625 1.875 0 0 Z " fill="#5F798D" transform="translate(193,702)"/>
<path d="M0 0 C2.625 0.375 2.625 0.375 5 1 C4.67 2.65 4.34 4.3 4 6 C2.35 6 0.7 6 -1 6 C-1.625 4.125 -1.625 4.125 -2 2 C-1.34 1.34 -0.68 0.68 0 0 Z " fill="#627F92" transform="translate(958,536)"/>
<path d="M0 0 C2.0625 0.4375 2.0625 0.4375 4 1 C4.33 2.65 4.66 4.3 5 6 C3.34385343 6.38218767 1.67542976 6.71395102 0 7 C-1 6 -1 6 -1.125 3.5 C-1 1 -1 1 0 0 Z " fill="#5C778B" transform="translate(971,203)"/>
<path d="M0 0 C1.32 0 2.64 0 4 0 C4.38218767 1.65614657 4.71395102 3.32457024 5 5 C4 6 4 6 1.4375 6.0625 C0.2309375 6.0315625 0.2309375 6.0315625 -1 6 C-1.625 4.125 -1.625 4.125 -2 2 C-1.34 1.34 -0.68 0.68 0 0 Z " fill="#607B8F" transform="translate(66,937)"/>
<path d="M0 0 C2.125 0.9375 2.125 0.9375 4 2 C3.67 3.65 3.34 5.3 3 7 C1.35 6.67 -0.3 6.34 -2 6 C-2 4.35 -2 2.7 -2 1 C-1.34 0.67 -0.68 0.34 0 0 Z " fill="#617D90" transform="translate(763,898)"/>
<path d="M0 0 C1.67542976 0.28604898 3.34385343 0.61781233 5 1 C5 2.32 5 3.64 5 5 C3.35 5.33 1.7 5.66 0 6 C-0.38218767 4.34385343 -0.71395102 2.67542976 -1 1 C-0.67 0.67 -0.34 0.34 0 0 Z " fill="#617D91" transform="translate(198,422)"/>
<path d="M0 0 C2.0625 0.4375 2.0625 0.4375 4 1 C4 2.65 4 4.3 4 6 C2.125 6.625 2.125 6.625 0 7 C-0.66 6.34 -1.32 5.68 -2 5 C-1.46428571 1.46428571 -1.46428571 1.46428571 0 0 Z " fill="#5E7A8E" transform="translate(366,144)"/>
<path d="M0 0 C1.2065625 0.0309375 1.2065625 0.0309375 2.4375 0.0625 C2.4375 1.7125 2.4375 3.3625 2.4375 5.0625 C0.7875 5.3925 -0.8625 5.7225 -2.5625 6.0625 C-2.94468767 4.40635343 -3.27645102 2.73792976 -3.5625 1.0625 C-2.5625 0.0625 -2.5625 0.0625 0 0 Z " fill="#627E91" transform="translate(72.5625,571.9375)"/>
<path d="M0 0 C1.2065625 0.0309375 1.2065625 0.0309375 2.4375 0.0625 C2.4375 1.7125 2.4375 3.3625 2.4375 5.0625 C0.7875 5.3925 -0.8625 5.7225 -2.5625 6.0625 C-2.94468767 4.40635343 -3.27645102 2.73792976 -3.5625 1.0625 C-2.5625 0.0625 -2.5625 0.0625 0 0 Z " fill="#637F93" transform="translate(838.5625,308.9375)"/>
<path d="M0 0 C1.67542976 0.28604898 3.34385343 0.61781233 5 1 C4.67 2.65 4.34 4.3 4 6 C2.35 6 0.7 6 -1 6 C-1.042721 4.33388095 -1.04063832 2.66617115 -1 1 C-0.67 0.67 -0.34 0.34 0 0 Z " fill="#5F7B8F" transform="translate(65,114)"/>
<path d="M0 0 C1.67542976 0.28604898 3.34385343 0.61781233 5 1 C5 2.65 5 4.3 5 6 C3.35 6 1.7 6 0 6 C-0.38218767 4.34385343 -0.71395102 2.67542976 -1 1 C-0.67 0.67 -0.34 0.34 0 0 Z " fill="#5E7B8F" transform="translate(954,65)"/>
<path d="M0 0 C1.65 0.33 3.3 0.66 5 1 C4.67 2.65 4.34 4.3 4 6 C2.35 5.67 0.7 5.34 -1 5 C-0.67 3.35 -0.34 1.7 0 0 Z " fill="#658195" transform="translate(322,942)"/>
<path d="M0 0 C1.65 0 3.3 0 5 0 C5.625 1.875 5.625 1.875 6 4 C5.34 4.66 4.68 5.32 4 6 C1.9375 5.8125 1.9375 5.8125 0 5 C-0.33 4.01 -0.66 3.02 -1 2 C-0.67 1.34 -0.34 0.68 0 0 Z " fill="#2B4358" transform="translate(477,933)"/>
<path d="M0 0 C1.65 0.33 3.3 0.66 5 1 C4.67 2.65 4.34 4.3 4 6 C2.35 5.67 0.7 5.34 -1 5 C-0.67 3.35 -0.34 1.7 0 0 Z " fill="#658396" transform="translate(687,768)"/>
<path d="M0 0 C1.65 0.33 3.3 0.66 5 1 C4.67 2.65 4.34 4.3 4 6 C2.35 5.67 0.7 5.34 -1 5 C-0.67 3.35 -0.34 1.7 0 0 Z " fill="#658397" transform="translate(523,23)"/>
<path d="M0 0 C1.65 0 3.3 0 5 0 C5.625 1.875 5.625 1.875 6 4 C5.34 4.66 4.68 5.32 4 6 C1.875 5.625 1.875 5.625 0 5 C0 3.35 0 1.7 0 0 Z " fill="#344D63" transform="translate(383,830)"/>
<path d="M0 0 C0 0.66 0 1.32 0 2 C-4.70461323 3.86132673 -8.8757696 4.2509496 -13.875 4.125 C-14.56335938 4.11597656 -15.25171875 4.10695313 -15.9609375 4.09765625 C-17.64077838 4.07432513 -19.32043746 4.03846326 -21 4 C-21 3.67 -21 3.34 -21 3 C-20.00097656 2.95101563 -19.00195312 2.90203125 -17.97265625 2.8515625 C-16.68230469 2.77679688 -15.39195312 2.70203125 -14.0625 2.625 C-12.77472656 2.55539062 -11.48695313 2.48578125 -10.16015625 2.4140625 C-9.11730469 2.27742188 -8.07445312 2.14078125 -7 2 C-6.67 1.34 -6.34 0.68 -6 0 C-2.49056604 -1.24528302 -2.49056604 -1.24528302 0 0 Z " fill="#E7E8E9" transform="translate(576,454)"/>
<path d="M0 0 C0.99 0 1.98 0 3 0 C3 4.29 3 8.58 3 13 C2.01 13 1.02 13 0 13 C0 8.71 0 4.42 0 0 Z " fill="#E6E8E9" transform="translate(302,416)"/>
<path d="M0 0 C0 0.99 0 1.98 0 3 C-1.32 3.33 -2.64 3.66 -4 4 C-2.68 5.65 -1.36 7.3 0 9 C-3.63 8.01 -7.26 7.02 -11 6 C-10 4 -10 4 -7.96875 3.18359375 C-7.1540625 2.93738281 -6.339375 2.69117188 -5.5 2.4375 C-2.48668507 1.67451663 -2.48668507 1.67451663 0 0 Z " fill="#2B445A" transform="translate(188,215)"/>
<path d="M0 0 C0.66 0 1.32 0 2 0 C2 1.32 2 2.64 2 4 C2.66 4 3.32 4 4 4 C4 5.98 4 7.96 4 10 C3.01 10.495 3.01 10.495 2 11 C0.57741188 7.17679443 -0.24042276 4.08718695 0 0 Z " fill="#E5E6E7" transform="translate(303,430)"/>
<path d="M0 0 C0.66 0.33 1.32 0.66 2 1 C0.4169423 5.2742558 -2.50568404 7.26531794 -6 10 C-6.33 8.68 -6.66 7.36 -7 6 C-6.34 6 -5.68 6 -5 6 C-4.67 5.34 -4.34 4.68 -4 4 C-3.34 4 -2.68 4 -2 4 C-1.34 2.68 -0.68 1.36 0 0 Z " fill="#1C3348" transform="translate(814,464)"/>
<path d="M0 0 C0.66 0 1.32 0 2 0 C3.625 2.5 3.625 2.5 5 5 C4.34 5.66 3.68 6.32 3 7 C1.68 6.34 0.36 5.68 -1 5 C-0.67 3.35 -0.34 1.7 0 0 Z " fill="#131B25" transform="translate(512,455)"/>
<path d="M0 0 C2.64 0.33 5.28 0.66 8 1 C7.67 1.99 7.34 2.98 7 4 C4.69 3.67 2.38 3.34 0 3 C0 2.01 0 1.02 0 0 Z " fill="#131B23" transform="translate(350,451)"/>
<path d="M0 0 C2.63165221 2.63165221 6 6.16486581 6 10 C5.01 10 4.02 10 3 10 C0.96564469 6.27034861 0 4.33094958 0 0 Z " fill="#0F1A25" transform="translate(675,362)"/>
<path d="M0 0 C1.98 0.495 1.98 0.495 4 1 C3.67 2.32 3.34 3.64 3 5 C1.68 4.67 0.36 4.34 -1 4 C-0.67 2.68 -0.34 1.36 0 0 Z " fill="#30485D" transform="translate(632,110)"/>
<path d="M0 0 C0.66 0.33 1.32 0.66 2 1 C0.515 4.465 0.515 4.465 -1 8 C-1.66 7.67 -2.32 7.34 -3 7 C-2.625 4.0625 -2.625 4.0625 -2 1 C-1.34 0.67 -0.68 0.34 0 0 Z " fill="#EAECEC" transform="translate(340,375)"/>
<path d="M0 0 C2.63249349 2.45699392 4.78137264 4.56568654 6 8 C5.67 8.99 5.34 9.98 5 11 C4.54625 10.21625 4.0925 9.4325 3.625 8.625 C2.11571258 5.96301969 2.11571258 5.96301969 0 4 C0 2.68 0 1.36 0 0 Z " fill="#1C3449" transform="translate(914,235)"/>
<path d="M0 0 C1.98 0.495 1.98 0.495 4 1 C3.67 2.32 3.34 3.64 3 5 C1.68 4.34 0.36 3.68 -1 3 C-0.67 2.01 -0.34 1.02 0 0 Z " fill="#627F93" transform="translate(911,720)"/>
<path d="M0 0 C1.32 0.66 2.64 1.32 4 2 C3.67 2.99 3.34 3.98 3 5 C1.68 4.67 0.36 4.34 -1 4 C-0.67 2.68 -0.34 1.36 0 0 Z " fill="#253B4F" transform="translate(92,177)"/>
<path d="M0 0 C3.63 0 7.26 0 11 0 C11 0.99 11 1.98 11 3 C10.484375 2.855625 9.96875 2.71125 9.4375 2.5625 C6.31490429 1.84190099 3.17449308 1.42733561 0 1 C0 0.67 0 0.34 0 0 Z " fill="#C2C5C8" transform="translate(459,455)"/>
<path d="M0 0 C1.53445094 3.06890187 0.54984289 5.70094266 0 9 C-0.99 9 -1.98 9 -3 9 C-2.44271087 5.65626525 -1.64826111 2.96687001 0 0 Z " fill="#0F1A25" transform="translate(311,382)"/>
<path d="M0 0 C-3.18762365 2.12508244 -5.26512223 2.5020163 -9 3 C-9 2.01 -9 1.02 -9 0 C-5.67465243 -1.10844919 -3.37817425 -0.84454356 0 0 Z " fill="#151E28" transform="translate(584,477)"/>
<path d="M0 0 C1.74959319 2.62438979 2.62068453 3.96547627 3 7 C2.34 7.99 1.68 8.98 1 10 C-0.60725635 6.78548731 -0.05748185 3.56387464 0 0 Z " fill="#151D24" transform="translate(686,385)"/>
<path d="M0 0 C0.99 0 1.98 0 3 0 C2.67 1.65 2.34 3.3 2 5 C1.01 4.67 0.02 4.34 -1 4 C-0.67 2.68 -0.34 1.36 0 0 Z " fill="#6A889E" transform="translate(159,342)"/>
<path d="M0 0 C2.475 0.495 2.475 0.495 5 1 C4.67 1.99 4.34 2.98 4 4 C2.68 3.67 1.36 3.34 0 3 C0 2.01 0 1.02 0 0 Z " fill="#21394C" transform="translate(391,245)"/>
<path d="M0 0 C2.97 0 5.94 0 9 0 C5 2 5 2 2 2 C1.67 2.99 1.34 3.98 1 5 C0.67 3.35 0.34 1.7 0 0 Z " fill="#010B17" transform="translate(796,219)"/>
</svg>
